# MagicaVoxel @ Ephtracy

# group
g char_maestro

# material
mtllib char_maestro.mtl
usemtl palette

# normals
vn -1 0 0
vn 1 0 0
vn 0 0 1
vn 0 0 -1
vn 0 -1 0
vn 0 1 0

# texcoords
vt 0.939453 0.5
vt 0.978516 0.5
vt 0.982422 0.5
vt 0.986328 0.5
vt 0.990234 0.5
vt 0.994141 0.5

# verts
v -8.5 14 0.5
v -8.5 14 -2.5
v -8.5 17 0.5
v -8.5 17 -2.5
v -8.5 25 0.5
v -8.5 25 -2.5
v -4.5 0 2.5
v -4.5 0 -2.5
v -4.5 2 2.5
v -4.5 2 0.5
v -4.5 2 -2.5
v -4.5 14 0.5
v -4.5 14 -2.5
v -4.5 22 0.5
v -4.5 22 -2.5
v -2.5 25 0.5
v -2.5 25 -2.5
v -2.5 28 0.5
v -2.5 28 -0.5
v -2.5 30 0.5
v -2.5 30 -0.5
v -2.5 31 0.5
v -2.5 31 -2.5
v 1.5 0 2.5
v 1.5 0 -2.5
v 1.5 2 2.5
v 1.5 2 0.5
v 1.5 2 -2.5
v 1.5 12 0.5
v 1.5 12 -2.5
v 5.5 14 0.5
v 5.5 14 -2.5
v 5.5 17 0.5
v 5.5 17 -2.5
v 5.5 22 0.5
v 5.5 22 -2.5
v -5.5 14 0.5
v -5.5 14 -2.5
v -5.5 17 0.5
v -5.5 17 -2.5
v -5.5 22 0.5
v -5.5 22 -2.5
v -1.5 0 2.5
v -1.5 0 -2.5
v -1.5 2 2.5
v -1.5 2 0.5
v -1.5 2 -2.5
v -1.5 12 0.5
v -1.5 12 -2.5
v 2.5 25 0.5
v 2.5 25 -2.5
v 2.5 28 0.5
v 2.5 28 -0.5
v 2.5 30 0.5
v 2.5 30 -0.5
v 2.5 31 0.5
v 2.5 31 -2.5
v 4.5 0 2.5
v 4.5 0 -2.5
v 4.5 2 2.5
v 4.5 2 0.5
v 4.5 2 -2.5
v 4.5 14 0.5
v 4.5 14 -2.5
v 4.5 22 0.5
v 4.5 22 -2.5
v 8.5 14 0.5
v 8.5 14 -2.5
v 8.5 17 0.5
v 8.5 17 -2.5
v 8.5 25 0.5
v 8.5 25 -2.5
v -4.5 0 2.5
v -4.5 2 2.5
v -1.5 0 2.5
v -1.5 2 2.5
v 1.5 0 2.5
v 1.5 2 2.5
v 4.5 0 2.5
v 4.5 2 2.5
v -8.5 14 0.5
v -8.5 17 0.5
v -8.5 25 0.5
v -5.5 14 0.5
v -5.5 17 0.5
v -5.5 22 0.5
v -4.5 2 0.5
v -4.5 14 0.5
v -4.5 22 0.5
v -2.5 25 0.5
v -2.5 28 0.5
v -2.5 30 0.5
v -2.5 31 0.5
v -1.5 2 0.5
v -1.5 12 0.5
v -1.5 26 0.5
v -1.5 27 0.5
v -1.5 28 0.5
v -1.5 29 0.5
v -0.5 28 0.5
v -0.5 29 0.5
v 0.5 28 0.5
v 0.5 29 0.5
v 1.5 2 0.5
v 1.5 12 0.5
v 1.5 18 0.5
v 1.5 21 0.5
v 1.5 22 0.5
v 1.5 26 0.5
v 1.5 27 0.5
v 1.5 28 0.5
v 1.5 29 0.5
v 2.5 21 0.5
v 2.5 22 0.5
v 2.5 25 0.5
v 2.5 28 0.5
v 2.5 30 0.5
v 2.5 31 0.5
v 3.5 18 0.5
v 3.5 21 0.5
v 3.5 22 0.5
v 4.5 2 0.5
v 4.5 14 0.5
v 4.5 22 0.5
v 5.5 14 0.5
v 5.5 17 0.5
v 5.5 22 0.5
v 8.5 14 0.5
v 8.5 17 0.5
v 8.5 25 0.5
v -8.5 14 -2.5
v -8.5 17 -2.5
v -8.5 25 -2.5
v -5.5 14 -2.5
v -5.5 17 -2.5
v -5.5 22 -2.5
v -4.5 0 -2.5
v -4.5 2 -2.5
v -4.5 14 -2.5
v -4.5 22 -2.5
v -2.5 25 -2.5
v -2.5 31 -2.5
v -1.5 0 -2.5
v -1.5 2 -2.5
v -1.5 12 -2.5
v 1.5 0 -2.5
v 1.5 2 -2.5
v 1.5 12 -2.5
v 2.5 25 -2.5
v 2.5 31 -2.5
v 4.5 0 -2.5
v 4.5 2 -2.5
v 4.5 14 -2.5
v 4.5 22 -2.5
v 5.5 14 -2.5
v 5.5 17 -2.5
v 5.5 22 -2.5
v 8.5 14 -2.5
v 8.5 17 -2.5
v 8.5 25 -2.5
v -4.5 0 2.5
v -1.5 0 2.5
v 1.5 0 2.5
v 4.5 0 2.5
v -4.5 0 -2.5
v -1.5 0 -2.5
v 1.5 0 -2.5
v 4.5 0 -2.5
v -1.5 12 0.5
v 1.5 12 0.5
v -1.5 12 -2.5
v 1.5 12 -2.5
v -8.5 14 0.5
v -5.5 14 0.5
v 5.5 14 0.5
v 8.5 14 0.5
v -8.5 14 -2.5
v -5.5 14 -2.5
v 5.5 14 -2.5
v 8.5 14 -2.5
v -5.5 22 0.5
v -4.5 22 0.5
v 4.5 22 0.5
v 5.5 22 0.5
v -5.5 22 -2.5
v -4.5 22 -2.5
v 4.5 22 -2.5
v 5.5 22 -2.5
v -4.5 2 2.5
v -1.5 2 2.5
v 1.5 2 2.5
v 4.5 2 2.5
v -4.5 2 0.5
v -1.5 2 0.5
v 1.5 2 0.5
v 4.5 2 0.5
v -8.5 25 0.5
v -2.5 25 0.5
v 2.5 25 0.5
v 8.5 25 0.5
v -8.5 25 -2.5
v -2.5 25 -2.5
v 2.5 25 -2.5
v 8.5 25 -2.5
v -2.5 31 0.5
v 2.5 31 0.5
v -2.5 31 -2.5
v 2.5 31 -2.5

# faces
f 3/3/1 2/3/1 1/3/1
f 4/3/1 2/3/1 3/3/1
f 5/1/1 4/1/1 3/1/1
f 6/1/1 4/1/1 5/1/1
f 9/6/1 8/6/1 7/6/1
f 10/6/1 8/6/1 9/6/1
f 11/6/1 8/6/1 10/6/1
f 12/5/1 11/5/1 10/5/1
f 13/5/1 11/5/1 12/5/1
f 14/1/1 13/1/1 12/1/1
f 15/1/1 13/1/1 14/1/1
f 18/5/1 17/5/1 16/5/1
f 19/5/1 17/5/1 18/5/1
f 20/3/1 19/3/1 18/3/1
f 21/5/1 17/5/1 19/5/1
f 21/3/1 19/3/1 20/3/1
f 22/5/1 21/5/1 20/5/1
f 23/5/1 17/5/1 21/5/1
f 23/5/1 21/5/1 22/5/1
f 26/6/1 25/6/1 24/6/1
f 27/6/1 25/6/1 26/6/1
f 28/6/1 25/6/1 27/6/1
f 29/5/1 28/5/1 27/5/1
f 30/5/1 28/5/1 29/5/1
f 33/3/1 32/3/1 31/3/1
f 34/3/1 32/3/1 33/3/1
f 35/1/1 34/1/1 33/1/1
f 36/1/1 34/1/1 35/1/1
f 37/3/2 38/3/2 39/3/2
f 39/3/2 38/3/2 40/3/2
f 39/1/2 40/1/2 41/1/2
f 41/1/2 40/1/2 42/1/2
f 43/6/2 44/6/2 45/6/2
f 45/6/2 44/6/2 46/6/2
f 46/6/2 44/6/2 47/6/2
f 46/5/2 47/5/2 48/5/2
f 48/5/2 47/5/2 49/5/2
f 50/5/2 51/5/2 52/5/2
f 52/5/2 51/5/2 53/5/2
f 52/3/2 53/3/2 54/3/2
f 53/5/2 51/5/2 55/5/2
f 54/3/2 53/3/2 55/3/2
f 54/5/2 55/5/2 56/5/2
f 55/5/2 51/5/2 57/5/2
f 56/5/2 55/5/2 57/5/2
f 58/6/2 59/6/2 60/6/2
f 60/6/2 59/6/2 61/6/2
f 61/6/2 59/6/2 62/6/2
f 61/5/2 62/5/2 63/5/2
f 63/5/2 62/5/2 64/5/2
f 63/1/2 64/1/2 65/1/2
f 65/1/2 64/1/2 66/1/2
f 67/3/2 68/3/2 69/3/2
f 69/3/2 68/3/2 70/3/2
f 69/1/2 70/1/2 71/1/2
f 71/1/2 70/1/2 72/1/2
f 75/6/3 74/6/3 73/6/3
f 76/6/3 74/6/3 75/6/3
f 79/6/3 78/6/3 77/6/3
f 80/6/3 78/6/3 79/6/3
f 84/3/3 82/3/3 81/3/3
f 85/1/3 83/1/3 82/1/3
f 85/3/3 82/3/3 84/3/3
f 86/1/3 83/1/3 85/1/3
f 89/1/3 83/1/3 86/1/3
f 90/1/3 83/1/3 89/1/3
f 90/1/3 89/1/3 88/1/3
f 94/5/3 88/5/3 87/5/3
f 95/5/3 88/5/3 94/5/3
f 96/5/3 91/5/3 90/5/3
f 97/5/3 91/5/3 96/5/3
f 98/3/3 92/3/3 91/3/3
f 98/5/3 91/5/3 97/5/3
f 99/3/3 92/3/3 98/3/3
f 100/5/3 98/5/3 97/5/3
f 100/6/3 99/6/3 98/6/3
f 101/3/3 92/3/3 99/3/3
f 101/6/3 99/6/3 100/6/3
f 102/5/3 100/5/3 97/5/3
f 102/3/3 101/3/3 100/3/3
f 103/3/3 92/3/3 101/3/3
f 103/3/3 101/3/3 102/3/3
f 105/5/3 88/5/3 95/5/3
f 106/1/3 90/1/3 88/1/3
f 107/1/3 90/1/3 106/1/3
f 108/1/3 90/1/3 107/1/3
f 109/2/3 97/2/3 96/2/3
f 109/5/3 96/5/3 90/5/3
f 110/5/3 102/5/3 97/5/3
f 110/2/3 97/2/3 109/2/3
f 111/6/3 103/6/3 102/6/3
f 111/5/3 102/5/3 110/5/3
f 112/3/3 92/3/3 103/3/3
f 112/6/3 103/6/3 111/6/3
f 113/2/3 108/2/3 107/2/3
f 113/4/3 107/4/3 106/4/3
f 114/1/3 90/1/3 108/1/3
f 114/2/3 108/2/3 113/2/3
f 115/5/3 111/5/3 110/5/3
f 115/1/3 90/1/3 114/1/3
f 115/5/3 109/5/3 90/5/3
f 115/5/3 110/5/3 109/5/3
f 116/3/3 112/3/3 111/3/3
f 116/5/3 111/5/3 115/5/3
f 117/5/3 93/5/3 92/5/3
f 117/3/3 112/3/3 116/3/3
f 117/3/3 92/3/3 112/3/3
f 118/5/3 93/5/3 117/5/3
f 119/4/3 113/4/3 106/4/3
f 119/1/3 106/1/3 88/1/3
f 120/3/3 114/3/3 113/3/3
f 120/4/3 113/4/3 119/4/3
f 121/1/3 115/1/3 114/1/3
f 121/3/3 114/3/3 120/3/3
f 122/5/3 105/5/3 104/5/3
f 123/1/3 119/1/3 88/1/3
f 123/5/3 105/5/3 122/5/3
f 123/1/3 120/1/3 119/1/3
f 123/1/3 121/1/3 120/1/3
f 123/5/3 88/5/3 105/5/3
f 124/1/3 115/1/3 121/1/3
f 124/1/3 121/1/3 123/1/3
f 127/1/3 115/1/3 124/1/3
f 128/3/3 126/3/3 125/3/3
f 129/1/3 127/1/3 126/1/3
f 129/3/3 126/3/3 128/3/3
f 130/1/3 115/1/3 127/1/3
f 130/1/3 127/1/3 129/1/3
f 131/3/4 132/3/4 134/3/4
f 132/1/4 133/1/4 135/1/4
f 134/3/4 132/3/4 135/3/4
f 135/1/4 133/1/4 136/1/4
f 136/1/4 133/1/4 140/1/4
f 140/1/4 133/1/4 141/1/4
f 139/1/4 140/1/4 141/1/4
f 137/6/4 138/6/4 143/6/4
f 138/5/4 139/5/4 144/5/4
f 143/6/4 138/6/4 144/6/4
f 144/5/4 139/5/4 145/5/4
f 145/5/4 139/5/4 148/5/4
f 141/5/4 142/5/4 149/5/4
f 139/1/4 141/1/4 149/1/4
f 149/5/4 142/5/4 150/5/4
f 146/6/4 147/6/4 151/6/4
f 147/5/4 148/5/4 152/5/4
f 151/6/4 147/6/4 152/6/4
f 148/5/4 139/5/4 153/5/4
f 152/5/4 148/5/4 153/5/4
f 139/1/4 149/1/4 153/1/4
f 153/1/4 149/1/4 154/1/4
f 154/1/4 149/1/4 157/1/4
f 155/3/4 156/3/4 158/3/4
f 156/1/4 157/1/4 159/1/4
f 158/3/4 156/3/4 159/3/4
f 157/1/4 149/1/4 160/1/4
f 159/1/4 157/1/4 160/1/4
f 165/6/5 162/6/5 161/6/5
f 166/6/5 162/6/5 165/6/5
f 167/6/5 164/6/5 163/6/5
f 168/6/5 164/6/5 167/6/5
f 171/5/5 170/5/5 169/5/5
f 172/5/5 170/5/5 171/5/5
f 177/3/5 174/3/5 173/3/5
f 178/3/5 174/3/5 177/3/5
f 179/3/5 176/3/5 175/3/5
f 180/3/5 176/3/5 179/3/5
f 185/1/5 182/1/5 181/1/5
f 186/1/5 182/1/5 185/1/5
f 187/1/5 184/1/5 183/1/5
f 188/1/5 184/1/5 187/1/5
f 189/6/6 190/6/6 193/6/6
f 193/6/6 190/6/6 194/6/6
f 191/6/6 192/6/6 195/6/6
f 195/6/6 192/6/6 196/6/6
f 197/1/6 198/1/6 201/1/6
f 201/1/6 198/1/6 202/1/6
f 199/1/6 200/1/6 203/1/6
f 203/1/6 200/1/6 204/1/6
f 205/5/6 206/5/6 207/5/6
f 207/5/6 206/5/6 208/5/6
