# MagicaVoxel @ Ephtracy

# group
g obj_scrigno_open

# material
mtllib obj_scrigno_open.mtl
usemtl palette

# normals
vn -1 0 0
vn 1 0 0
vn 0 0 1
vn 0 0 -1
vn 0 -1 0
vn 0 1 0

# texcoords
vt 0.943359 0.5
vt 0.974609 0.5
vt 0.978516 0.5
vt 0.982422 0.5

# verts
v -4 3 1
v -4 3 -0
v -4 5 1
v -4 5 -0
v -3 0 8
v -3 0 -7
v -3 3 1
v -3 3 -0
v -3 4 8
v -3 4 1
v -3 4 -0
v -3 4 -7
v -3 5 8
v -3 5 1
v -3 5 -0
v -3 5 -7
v 3 1 7
v 3 1 5
v 3 1 -4
v 3 1 -6
v 3 3 7
v 3 3 5
v 3 3 -4
v 3 3 -6
v 3 4 7
v 3 4 -6
v 3 5 8
v 3 5 7
v 3 5 -6
v 3 5 -7
v 3 10 8
v 3 10 -7
v -2 1 7
v -2 1 -6
v -2 3 1
v -2 3 -0
v -2 4 7
v -2 4 1
v -2 4 -0
v -2 4 -6
v -2 5 7
v -2 5 1
v -2 5 -0
v -2 5 -6
v 4 0 8
v 4 0 -7
v 4 1 7
v 4 1 5
v 4 1 -4
v 4 1 -6
v 4 3 7
v 4 3 5
v 4 3 -4
v 4 3 -6
v 4 4 8
v 4 4 -7
v 4 5 8
v 4 5 -7
v 4 10 8
v 4 10 -7
v -3 0 8
v -3 4 8
v -3 5 8
v 3 5 8
v 3 10 8
v 4 0 8
v 4 4 8
v 4 5 8
v 4 10 8
v -4 3 1
v -4 5 1
v -3 3 1
v -3 4 1
v -3 5 1
v -2 1 -6
v -2 4 -6
v -2 5 -6
v 3 1 -6
v 3 3 -6
v 3 4 -6
v 3 5 -6
v -2 1 7
v -2 4 7
v -2 5 7
v 3 1 7
v 3 3 7
v 3 4 7
v 3 5 7
v -4 3 -0
v -4 5 -0
v -3 3 -0
v -3 4 -0
v -3 5 -0
v -3 0 -7
v -3 4 -7
v -3 5 -7
v 3 5 -7
v 3 10 -7
v 4 0 -7
v 4 4 -7
v 4 5 -7
v 4 10 -7
v -3 0 8
v 4 0 8
v -3 0 -7
v 4 0 -7
v -4 3 1
v -3 3 1
v -4 3 -0
v -3 3 -0
v -2 1 7
v 3 1 7
v 3 1 5
v 3 1 -4
v -2 1 -6
v 3 1 -6
v -3 5 8
v 3 5 8
v -2 5 7
v 3 5 7
v -4 5 1
v -3 5 1
v -2 5 1
v -4 5 -0
v -3 5 -0
v -2 5 -0
v -2 5 -6
v 3 5 -6
v -3 5 -7
v 3 5 -7
v 3 10 8
v 4 10 8
v 3 10 -7
v 4 10 -7

# faces
f 3/3/1 2/3/1 1/3/1
f 4/3/1 2/3/1 3/3/1
f 7/2/1 6/2/1 5/2/1
f 8/2/1 6/2/1 7/2/1
f 9/2/1 7/2/1 5/2/1
f 10/2/1 7/2/1 9/2/1
f 11/2/1 6/2/1 8/2/1
f 12/2/1 6/2/1 11/2/1
f 13/4/1 10/4/1 9/4/1
f 14/4/1 10/4/1 13/4/1
f 15/4/1 12/4/1 11/4/1
f 16/4/1 12/4/1 15/4/1
f 21/1/1 18/1/1 17/1/1
f 22/2/1 19/2/1 18/2/1
f 22/1/1 18/1/1 21/1/1
f 23/1/1 20/1/1 19/1/1
f 23/2/1 19/2/1 22/2/1
f 24/1/1 20/1/1 23/1/1
f 25/2/1 22/2/1 21/2/1
f 25/2/1 23/2/1 22/2/1
f 25/2/1 24/2/1 23/2/1
f 26/2/1 24/2/1 25/2/1
f 28/4/1 26/4/1 25/4/1
f 29/4/1 26/4/1 28/4/1
f 31/2/1 29/2/1 28/2/1
f 31/2/1 30/2/1 29/2/1
f 31/2/1 28/2/1 27/2/1
f 32/2/1 30/2/1 31/2/1
f 33/2/2 34/2/2 35/2/2
f 35/2/2 34/2/2 36/2/2
f 33/2/2 35/2/2 37/2/2
f 35/3/2 36/3/2 38/3/2
f 37/2/2 35/2/2 38/2/2
f 36/2/2 34/2/2 39/2/2
f 38/3/2 36/3/2 39/3/2
f 39/2/2 34/2/2 40/2/2
f 37/4/2 38/4/2 41/4/2
f 38/3/2 39/3/2 42/3/2
f 41/4/2 38/4/2 42/4/2
f 39/4/2 40/4/2 43/4/2
f 42/3/2 39/3/2 43/3/2
f 43/4/2 40/4/2 44/4/2
f 45/2/2 46/2/2 47/2/2
f 47/2/2 46/2/2 48/2/2
f 48/2/2 46/2/2 49/2/2
f 49/2/2 46/2/2 50/2/2
f 45/2/2 47/2/2 51/2/2
f 47/1/2 48/1/2 51/1/2
f 48/2/2 49/2/2 52/2/2
f 51/1/2 48/1/2 52/1/2
f 49/1/2 50/1/2 53/1/2
f 52/2/2 49/2/2 53/2/2
f 50/2/2 46/2/2 54/2/2
f 53/1/2 50/1/2 54/1/2
f 52/2/2 53/2/2 55/2/2
f 51/2/2 52/2/2 55/2/2
f 53/2/2 54/2/2 55/2/2
f 45/2/2 51/2/2 55/2/2
f 54/2/2 46/2/2 56/2/2
f 55/2/2 54/2/2 56/2/2
f 55/4/2 56/4/2 57/4/2
f 57/4/2 56/4/2 58/4/2
f 57/2/2 58/2/2 59/2/2
f 59/2/2 58/2/2 60/2/2
f 64/4/3 63/4/3 62/4/3
f 66/2/3 62/2/3 61/2/3
f 67/4/3 64/4/3 62/4/3
f 67/2/3 62/2/3 66/2/3
f 68/2/3 65/2/3 64/2/3
f 68/4/3 64/4/3 67/4/3
f 69/2/3 65/2/3 68/2/3
f 72/3/3 71/3/3 70/3/3
f 73/3/3 71/3/3 72/3/3
f 74/3/3 71/3/3 73/3/3
f 78/2/3 76/2/3 75/2/3
f 79/2/3 76/2/3 78/2/3
f 80/4/3 77/4/3 76/4/3
f 80/2/3 76/2/3 79/2/3
f 81/4/3 77/4/3 80/4/3
f 82/2/4 83/2/4 85/2/4
f 85/2/4 83/2/4 86/2/4
f 83/4/4 84/4/4 87/4/4
f 86/2/4 83/2/4 87/2/4
f 87/4/4 84/4/4 88/4/4
f 89/3/4 90/3/4 91/3/4
f 91/3/4 90/3/4 92/3/4
f 92/3/4 90/3/4 93/3/4
f 95/4/4 96/4/4 97/4/4
f 94/2/4 95/2/4 99/2/4
f 95/4/4 97/4/4 100/4/4
f 99/2/4 95/2/4 100/2/4
f 97/2/4 98/2/4 101/2/4
f 100/4/4 97/4/4 101/4/4
f 101/2/4 98/2/4 102/2/4
f 105/2/5 104/2/5 103/2/5
f 106/2/5 104/2/5 105/2/5
f 109/3/5 108/3/5 107/3/5
f 110/3/5 108/3/5 109/3/5
f 111/2/6 112/2/6 113/2/6
f 111/2/6 113/2/6 114/2/6
f 111/2/6 114/2/6 115/2/6
f 115/2/6 114/2/6 116/2/6
f 117/4/6 118/4/6 119/4/6
f 119/4/6 118/4/6 120/4/6
f 117/4/6 119/4/6 122/4/6
f 122/4/6 119/4/6 123/4/6
f 121/3/6 122/3/6 124/3/6
f 122/3/6 123/3/6 124/3/6
f 124/3/6 123/3/6 125/3/6
f 125/3/6 123/3/6 126/3/6
f 125/4/6 126/4/6 127/4/6
f 125/4/6 127/4/6 129/4/6
f 127/4/6 128/4/6 129/4/6
f 129/4/6 128/4/6 130/4/6
f 131/2/6 132/2/6 133/2/6
f 133/2/6 132/2/6 134/2/6
