# MagicaVoxel @ Ephtracy

# group
g obj_scrigno

# material
mtllib obj_scrigno.mtl
usemtl palette

# normals
vn -1 0 0
vn 1 0 0
vn 0 0 1
vn 0 0 -1
vn 0 -1 0
vn 0 1 0

# texcoords
vt 0.974609 0.5
vt 0.978516 0.5
vt 0.982422 0.5

# verts
v -4 3 1
v -4 3 -0
v -4 5 1
v -4 5 -0
v -3 0 8
v -3 0 -7
v -3 3 1
v -3 3 -0
v -3 4 8
v -3 4 1
v -3 4 -0
v -3 4 -7
v -3 5 8
v -3 5 1
v -3 5 -0
v -3 5 -7
v -3 6 8
v -3 6 -7
v 4 0 8
v 4 0 -7
v 4 4 8
v 4 4 -7
v 4 5 8
v 4 5 -7
v 4 6 8
v 4 6 -7
v -3 0 8
v -3 4 8
v -3 5 8
v -3 6 8
v 4 0 8
v 4 4 8
v 4 5 8
v 4 6 8
v -4 3 1
v -4 5 1
v -3 3 1
v -3 4 1
v -3 5 1
v -4 3 -0
v -4 5 -0
v -3 3 -0
v -3 4 -0
v -3 5 -0
v -3 0 -7
v -3 4 -7
v -3 5 -7
v -3 6 -7
v 4 0 -7
v 4 4 -7
v 4 5 -7
v 4 6 -7
v -3 0 8
v 4 0 8
v -3 0 -7
v 4 0 -7
v -4 3 1
v -3 3 1
v -4 3 -0
v -3 3 -0
v -4 5 1
v -3 5 1
v -4 5 -0
v -3 5 -0
v -3 6 8
v 4 6 8
v -3 6 -7
v 4 6 -7

# faces
f 3/2/1 2/2/1 1/2/1
f 4/2/1 2/2/1 3/2/1
f 7/1/1 6/1/1 5/1/1
f 8/1/1 6/1/1 7/1/1
f 9/1/1 7/1/1 5/1/1
f 10/1/1 7/1/1 9/1/1
f 11/1/1 6/1/1 8/1/1
f 12/1/1 6/1/1 11/1/1
f 13/3/1 10/3/1 9/3/1
f 14/3/1 10/3/1 13/3/1
f 15/3/1 12/3/1 11/3/1
f 16/3/1 12/3/1 15/3/1
f 17/1/1 14/1/1 13/1/1
f 17/1/1 15/1/1 14/1/1
f 17/1/1 16/1/1 15/1/1
f 18/1/1 16/1/1 17/1/1
f 19/1/2 20/1/2 21/1/2
f 21/1/2 20/1/2 22/1/2
f 21/3/2 22/3/2 23/3/2
f 23/3/2 22/3/2 24/3/2
f 23/1/2 24/1/2 25/1/2
f 25/1/2 24/1/2 26/1/2
f 31/1/3 28/1/3 27/1/3
f 32/3/3 29/3/3 28/3/3
f 32/1/3 28/1/3 31/1/3
f 33/1/3 30/1/3 29/1/3
f 33/3/3 29/3/3 32/3/3
f 34/1/3 30/1/3 33/1/3
f 37/2/3 36/2/3 35/2/3
f 38/2/3 36/2/3 37/2/3
f 39/2/3 36/2/3 38/2/3
f 40/2/4 41/2/4 42/2/4
f 42/2/4 41/2/4 43/2/4
f 43/2/4 41/2/4 44/2/4
f 45/1/4 46/1/4 49/1/4
f 46/3/4 47/3/4 50/3/4
f 49/1/4 46/1/4 50/1/4
f 47/1/4 48/1/4 51/1/4
f 50/3/4 47/3/4 51/3/4
f 51/1/4 48/1/4 52/1/4
f 55/1/5 54/1/5 53/1/5
f 56/1/5 54/1/5 55/1/5
f 59/2/5 58/2/5 57/2/5
f 60/2/5 58/2/5 59/2/5
f 61/2/6 62/2/6 63/2/6
f 63/2/6 62/2/6 64/2/6
f 65/1/6 66/1/6 67/1/6
f 67/1/6 66/1/6 68/1/6
