# MagicaVoxel @ Ephtracy

# group
g obj_diary

# material
mtllib obj_diary.mtl
usemtl palette

# normals
vn -1 0 0
vn 1 0 0
vn 0 0 1
vn 0 0 -1
vn 0 -1 0
vn 0 1 0

# texcoords
vt 0.537109 0.5
vt 0.958984 0.5
vt 0.970703 0.5
vt 0.994141 0.5

# verts
v -16 0 12.5
v -16 0 -12.5
v -16 1 6.5
v -16 1 -10.5
v -16 1 -12.5
v -16 2 6.5
v -16 2 -10.5
v -16 3 6.5
v -16 3 -10.5
v -16 4 6.5
v -16 4 -10.5
v -16 5 6.5
v -16 5 -10.5
v -16 6 6.5
v -16 6 -10.5
v -16 7 6.5
v -16 7 -10.5
v -16 8 6.5
v -16 8 -10.5
v -16 10 12.5
v -16 10 -10.5
v 16 0 12.5
v 16 0 -12.5
v 16 1 6.5
v 16 1 -10.5
v 16 1 -12.5
v 16 2 6.5
v 16 2 -10.5
v 16 3 6.5
v 16 3 -10.5
v 16 4 6.5
v 16 4 -10.5
v 16 5 6.5
v 16 5 -10.5
v 16 6 6.5
v 16 6 -10.5
v 16 7 6.5
v 16 7 -10.5
v 16 8 6.5
v 16 8 -10.5
v 16 10 12.5
v 16 10 -10.5
v -16 0 12.5
v -16 10 12.5
v 16 0 12.5
v 16 10 12.5
v -16 1 -10.5
v -16 2 -10.5
v -16 3 -10.5
v -16 4 -10.5
v -16 5 -10.5
v -16 6 -10.5
v -16 7 -10.5
v -16 8 -10.5
v -16 10 -10.5
v 16 1 -10.5
v 16 2 -10.5
v 16 3 -10.5
v 16 4 -10.5
v 16 5 -10.5
v 16 6 -10.5
v 16 7 -10.5
v 16 8 -10.5
v 16 10 -10.5
v -16 0 -12.5
v -16 1 -12.5
v 16 0 -12.5
v 16 1 -12.5
v -16 0 12.5
v 16 0 12.5
v -16 0 -12.5
v 16 0 -12.5
v -16 1 -10.5
v 16 1 -10.5
v -16 1 -12.5
v 16 1 -12.5
v -16 10 12.5
v 16 10 12.5
v -13 10 10.5
v -5 10 10.5
v -12 10 9.5
v -6 10 9.5
v -13 10 6.5
v -12 10 6.5
v -6 10 6.5
v -5 10 6.5
v -12 10 5.5
v -6 10 5.5
v -13 10 3.5
v -5 10 3.5
v -13 10 2.5
v -5 10 2.5
v -10 10 1.5
v -5 10 1.5
v -11 10 0.5
v -10 10 0.5
v -8 10 0.5
v -7 10 0.5
v -5 10 0.5
v -11 10 -1.5
v -10 10 -1.5
v -8 10 -1.5
v -7 10 -1.5
v -5 10 -1.5
v -10 10 -2.5
v -5 10 -2.5
v -13 10 -3.5
v -5 10 -3.5
v -12 10 -4.5
v -11 10 -4.5
v -8 10 -4.5
v -5 10 -4.5
v -12 10 -5.5
v -11 10 -5.5
v -10 10 -5.5
v -9 10 -5.5
v -8 10 -5.5
v -5 10 -5.5
v -14 10 -6.5
v -13 10 -6.5
v -10 10 -6.5
v -9 10 -6.5
v -5 10 -6.5
v -14 10 -7.5
v -13 10 -7.5
v -5 10 -7.5
v -14 10 -8.5
v -13 10 -8.5
v -5 10 -8.5
v -14 10 -9.5
v -13 10 -9.5
v -16 10 -10.5
v 16 10 -10.5

# faces
f 3/1/1 2/1/1 1/1/1
f 4/1/1 2/1/1 3/1/1
f 5/1/1 2/1/1 4/1/1
f 6/1/1 3/1/1 1/1/1
f 6/3/1 4/3/1 3/3/1
f 7/3/1 4/3/1 6/3/1
f 8/1/1 6/1/1 1/1/1
f 8/4/1 7/4/1 6/4/1
f 9/4/1 7/4/1 8/4/1
f 10/1/1 8/1/1 1/1/1
f 10/3/1 9/3/1 8/3/1
f 11/3/1 9/3/1 10/3/1
f 12/1/1 10/1/1 1/1/1
f 12/4/1 11/4/1 10/4/1
f 13/4/1 11/4/1 12/4/1
f 14/1/1 12/1/1 1/1/1
f 14/3/1 13/3/1 12/3/1
f 15/3/1 13/3/1 14/3/1
f 16/1/1 14/1/1 1/1/1
f 16/4/1 15/4/1 14/4/1
f 17/4/1 15/4/1 16/4/1
f 18/1/1 16/1/1 1/1/1
f 18/3/1 17/3/1 16/3/1
f 19/3/1 17/3/1 18/3/1
f 20/1/1 18/1/1 1/1/1
f 20/1/1 19/1/1 18/1/1
f 21/1/1 19/1/1 20/1/1
f 22/1/2 23/1/2 24/1/2
f 24/1/2 23/1/2 25/1/2
f 25/1/2 23/1/2 26/1/2
f 22/1/2 24/1/2 27/1/2
f 24/3/2 25/3/2 27/3/2
f 27/3/2 25/3/2 28/3/2
f 22/1/2 27/1/2 29/1/2
f 27/4/2 28/4/2 29/4/2
f 29/4/2 28/4/2 30/4/2
f 22/1/2 29/1/2 31/1/2
f 29/3/2 30/3/2 31/3/2
f 31/3/2 30/3/2 32/3/2
f 22/1/2 31/1/2 33/1/2
f 31/4/2 32/4/2 33/4/2
f 33/4/2 32/4/2 34/4/2
f 22/1/2 33/1/2 35/1/2
f 33/3/2 34/3/2 35/3/2
f 35/3/2 34/3/2 36/3/2
f 22/1/2 35/1/2 37/1/2
f 35/4/2 36/4/2 37/4/2
f 37/4/2 36/4/2 38/4/2
f 22/1/2 37/1/2 39/1/2
f 37/3/2 38/3/2 39/3/2
f 39/3/2 38/3/2 40/3/2
f 22/1/2 39/1/2 41/1/2
f 39/1/2 40/1/2 41/1/2
f 41/1/2 40/1/2 42/1/2
f 45/1/3 44/1/3 43/1/3
f 46/1/3 44/1/3 45/1/3
f 47/3/4 48/3/4 56/3/4
f 48/4/4 49/4/4 57/4/4
f 56/3/4 48/3/4 57/3/4
f 49/3/4 50/3/4 58/3/4
f 57/4/4 49/4/4 58/4/4
f 50/4/4 51/4/4 59/4/4
f 58/3/4 50/3/4 59/3/4
f 51/3/4 52/3/4 60/3/4
f 59/4/4 51/4/4 60/4/4
f 52/4/4 53/4/4 61/4/4
f 60/3/4 52/3/4 61/3/4
f 53/3/4 54/3/4 62/3/4
f 61/4/4 53/4/4 62/4/4
f 54/1/4 55/1/4 63/1/4
f 62/3/4 54/3/4 63/3/4
f 63/1/4 55/1/4 64/1/4
f 65/1/4 66/1/4 67/1/4
f 67/1/4 66/1/4 68/1/4
f 71/1/5 70/1/5 69/1/5
f 72/1/5 70/1/5 71/1/5
f 73/1/6 74/1/6 75/1/6
f 75/1/6 74/1/6 76/1/6
f 77/1/6 78/1/6 79/1/6
f 79/1/6 78/1/6 80/1/6
f 79/2/6 80/2/6 81/2/6
f 81/2/6 80/2/6 82/2/6
f 77/1/6 79/1/6 83/1/6
f 79/2/6 81/2/6 83/2/6
f 81/1/6 82/1/6 84/1/6
f 83/2/6 81/2/6 84/2/6
f 82/2/6 80/2/6 85/2/6
f 84/1/6 82/1/6 85/1/6
f 80/1/6 78/1/6 86/1/6
f 85/2/6 80/2/6 86/2/6
f 83/1/6 84/1/6 87/1/6
f 84/2/6 85/2/6 87/2/6
f 85/1/6 86/1/6 88/1/6
f 87/2/6 85/2/6 88/2/6
f 83/1/6 87/1/6 89/1/6
f 77/1/6 83/1/6 89/1/6
f 87/1/6 88/1/6 89/1/6
f 86/1/6 78/1/6 90/1/6
f 89/1/6 88/1/6 90/1/6
f 88/1/6 86/1/6 90/1/6
f 77/1/6 89/1/6 91/1/6
f 89/2/6 90/2/6 91/2/6
f 90/1/6 78/1/6 92/1/6
f 91/2/6 90/2/6 92/2/6
f 91/1/6 92/1/6 93/1/6
f 92/1/6 78/1/6 94/1/6
f 93/1/6 92/1/6 94/1/6
f 91/1/6 93/1/6 95/1/6
f 93/2/6 94/2/6 96/2/6
f 95/1/6 93/1/6 96/1/6
f 96/2/6 94/2/6 97/2/6
f 97/2/6 94/2/6 98/2/6
f 94/1/6 78/1/6 99/1/6
f 98/2/6 94/2/6 99/2/6
f 91/1/6 95/1/6 100/1/6
f 95/2/6 96/2/6 100/2/6
f 96/1/6 97/1/6 101/1/6
f 100/2/6 96/2/6 101/2/6
f 97/2/6 98/2/6 102/2/6
f 101/1/6 97/1/6 102/1/6
f 98/1/6 99/1/6 103/1/6
f 102/2/6 98/2/6 103/2/6
f 99/1/6 78/1/6 104/1/6
f 103/1/6 99/1/6 104/1/6
f 100/1/6 101/1/6 105/1/6
f 102/2/6 103/2/6 105/2/6
f 103/2/6 104/2/6 105/2/6
f 101/2/6 102/2/6 105/2/6
f 104/1/6 78/1/6 106/1/6
f 105/2/6 104/2/6 106/2/6
f 77/1/6 91/1/6 107/1/6
f 100/1/6 105/1/6 107/1/6
f 105/1/6 106/1/6 107/1/6
f 91/1/6 100/1/6 107/1/6
f 106/1/6 78/1/6 108/1/6
f 107/1/6 106/1/6 108/1/6
f 107/2/6 108/2/6 109/2/6
f 109/2/6 108/2/6 110/2/6
f 110/2/6 108/2/6 111/2/6
f 108/1/6 78/1/6 112/1/6
f 111/2/6 108/2/6 112/2/6
f 107/2/6 109/2/6 113/2/6
f 109/1/6 110/1/6 113/1/6
f 110/2/6 111/2/6 114/2/6
f 113/1/6 110/1/6 114/1/6
f 114/2/6 111/2/6 115/2/6
f 115/2/6 111/2/6 116/2/6
f 111/1/6 112/1/6 117/1/6
f 116/2/6 111/2/6 117/2/6
f 112/1/6 78/1/6 118/1/6
f 117/1/6 112/1/6 118/1/6
f 77/1/6 107/1/6 119/1/6
f 107/2/6 113/2/6 120/2/6
f 119/1/6 107/1/6 120/1/6
f 113/2/6 114/2/6 120/2/6
f 114/2/6 115/2/6 120/2/6
f 115/1/6 116/1/6 121/1/6
f 120/2/6 115/2/6 121/2/6
f 116/2/6 117/2/6 122/2/6
f 121/1/6 116/1/6 122/1/6
f 117/2/6 118/2/6 122/2/6
f 118/1/6 78/1/6 123/1/6
f 122/2/6 118/2/6 123/2/6
f 77/1/6 119/1/6 124/1/6
f 119/2/6 120/2/6 124/2/6
f 121/1/6 122/1/6 125/1/6
f 124/2/6 120/2/6 125/2/6
f 120/1/6 121/1/6 125/1/6
f 122/1/6 123/1/6 125/1/6
f 123/1/6 78/1/6 126/1/6
f 125/1/6 123/1/6 126/1/6
f 77/1/6 124/1/6 127/1/6
f 124/1/6 125/1/6 127/1/6
f 125/2/6 126/2/6 128/2/6
f 127/1/6 125/1/6 128/1/6
f 126/1/6 78/1/6 129/1/6
f 128/2/6 126/2/6 129/2/6
f 127/2/6 128/2/6 130/2/6
f 77/1/6 127/1/6 130/1/6
f 128/1/6 129/1/6 131/1/6
f 130/2/6 128/2/6 131/2/6
f 77/1/6 130/1/6 132/1/6
f 130/1/6 131/1/6 132/1/6
f 129/1/6 78/1/6 133/1/6
f 132/1/6 131/1/6 133/1/6
f 131/1/6 129/1/6 133/1/6
