# MagicaVoxel @ Ephtracy

# group
g obj_apples

# material
mtllib obj_apples.mtl
usemtl palette

# normals
vn -1 0 0
vn 1 0 0
vn 0 0 1
vn 0 0 -1
vn 0 -1 0
vn 0 1 0

# texcoords
vt 0.970703 0.5
vt 0.974609 0.5
vt 0.978516 0.5

# verts
v -6 0 6
v -6 0 -6
v -6 8 6
v -6 8 -6
v -4 4 1
v -4 4 -0
v -4 4 -3
v -4 4 -4
v -4 5 1
v -4 5 -0
v -4 5 -3
v -4 5 -4
v -4 8 1
v -4 8 -0
v -4 9 1
v -4 9 -0
v -3 1 5
v -3 1 2
v -3 4 5
v -3 4 2
v -3 5 5
v -3 5 2
v -3 8 5
v -3 8 2
v -2 4 4
v -2 4 3
v -2 5 4
v -2 5 3
v -2 5 -2
v -2 5 -5
v -2 8 4
v -2 8 3
v -2 8 -2
v -2 8 -5
v -2 9 4
v -2 9 3
v -1 1 2
v -1 1 -1
v -1 1 -2
v -1 1 -5
v -1 4 2
v -1 4 -1
v -1 4 -2
v -1 4 -5
v -1 8 -3
v -1 8 -4
v -1 9 -3
v -1 9 -4
v 0 4 1
v 0 4 -0
v 0 4 -3
v 0 4 -4
v 0 5 1
v 0 5 -0
v 0 5 -3
v 0 5 -4
v 2 1 5
v 2 1 2
v 2 1 -1
v 2 1 -2
v 2 4 5
v 2 4 2
v 2 4 -1
v 2 4 -2
v 2 5 5
v 2 5 2
v 2 5 -1
v 2 5 -4
v 2 8 5
v 2 8 2
v 2 8 -1
v 2 8 -4
v 3 4 4
v 3 4 3
v 3 4 -1
v 3 4 -2
v 3 5 4
v 3 5 3
v 3 5 -1
v 3 5 -2
v 3 8 4
v 3 8 3
v 3 8 -2
v 3 8 -3
v 3 9 4
v 3 9 3
v 3 9 -2
v 3 9 -3
v 5 1 2
v 5 1 -0
v 5 1 -3
v 5 1 -5
v 5 4 5
v 5 4 2
v 5 4 -0
v 5 4 -3
v 5 5 5
v 5 5 2
v 5 5 -1
v 5 5 -4
v 5 8 2
v 5 8 -1
v 5 8 -4
v 5 8 -5
v -5 1 5
v -5 1 2
v -5 1 -1
v -5 1 -2
v -5 4 2
v -5 4 -1
v -5 4 -2
v -5 4 -5
v -5 5 2
v -5 5 -1
v -5 8 5
v -5 8 2
v -5 8 -1
v -5 8 -5
v -3 4 1
v -3 4 -0
v -3 4 -3
v -3 4 -4
v -3 5 1
v -3 5 -0
v -3 5 -3
v -3 5 -4
v -3 8 1
v -3 8 -0
v -3 9 1
v -3 9 -0
v -2 1 2
v -2 1 -1
v -2 1 -2
v -2 1 -5
v -2 4 2
v -2 4 -1
v -2 4 -2
v -2 4 -5
v -2 5 2
v -2 5 -1
v -2 8 2
v -2 8 -1
v -1 4 4
v -1 4 3
v -1 5 4
v -1 5 3
v -1 8 4
v -1 8 3
v -1 9 4
v -1 9 3
v 0 1 5
v 0 1 2
v 0 4 5
v 0 4 2
v 0 5 5
v 0 5 2
v 0 8 5
v 0 8 2
v 0 8 -3
v 0 8 -4
v 0 9 -3
v 0 9 -4
v 1 4 1
v 1 4 -0
v 1 4 -3
v 1 4 -4
v 1 5 1
v 1 5 -0
v 1 5 -2
v 1 5 -3
v 1 5 -4
v 1 5 -5
v 1 8 -2
v 1 8 -5
v 2 1 2
v 2 1 -0
v 2 1 -3
v 2 1 -5
v 2 4 2
v 2 4 -0
v 2 4 -3
v 2 4 -5
v 4 4 4
v 4 4 3
v 4 4 -1
v 4 4 -2
v 4 5 4
v 4 5 3
v 4 5 -1
v 4 5 -2
v 4 8 4
v 4 8 3
v 4 8 -2
v 4 8 -3
v 4 9 4
v 4 9 3
v 4 9 -2
v 4 9 -3
v 6 0 6
v 6 0 -6
v 6 8 6
v 6 8 -6
v -6 0 6
v -6 8 6
v 6 0 6
v 6 8 6
v -2 4 4
v -2 5 4
v -2 8 4
v -2 9 4
v -1 4 4
v -1 5 4
v -1 8 4
v -1 9 4
v 3 4 4
v 3 5 4
v 3 8 4
v 3 9 4
v 4 4 4
v 4 5 4
v 4 8 4
v 4 9 4
v -5 1 2
v -5 4 2
v -5 5 2
v -5 8 2
v -3 1 2
v -3 4 2
v -3 5 2
v -3 8 2
v 0 1 2
v 0 4 2
v 2 1 2
v 2 4 2
v -4 4 1
v -4 5 1
v -4 8 1
v -4 9 1
v -3 4 1
v -3 5 1
v -3 8 1
v -3 9 1
v 0 4 1
v 0 5 1
v 1 4 1
v 1 5 1
v 2 1 -0
v 2 4 -0
v 5 1 -0
v 5 4 -0
v 2 5 -1
v 2 8 -1
v 3 4 -1
v 3 5 -1
v 4 4 -1
v 4 5 -1
v 5 5 -1
v 5 8 -1
v -5 1 -2
v -5 4 -2
v -2 1 -2
v -2 4 -2
v -2 5 -2
v -2 8 -2
v -1 1 -2
v -1 4 -2
v 1 5 -2
v 1 8 -2
v 2 1 -2
v 2 4 -2
v 3 8 -2
v 3 9 -2
v 4 8 -2
v 4 9 -2
v -4 4 -3
v -4 5 -3
v -3 4 -3
v -3 5 -3
v -1 8 -3
v -1 9 -3
v 0 4 -3
v 0 5 -3
v 0 8 -3
v 0 9 -3
v 1 4 -3
v 1 5 -3
v -5 4 -5
v -5 8 -5
v -2 1 -5
v -2 4 -5
v -2 5 -5
v -2 8 -5
v -1 1 -5
v -1 4 -5
v 1 5 -5
v 1 8 -5
v 2 1 -5
v 2 4 -5
v 5 1 -5
v 5 8 -5
v -5 1 5
v -5 8 5
v -3 1 5
v -3 4 5
v -3 5 5
v -3 8 5
v 0 1 5
v 0 4 5
v 0 5 5
v 0 8 5
v 2 1 5
v 2 4 5
v 2 5 5
v 2 8 5
v 5 4 5
v 5 5 5
v -2 4 3
v -2 5 3
v -2 8 3
v -2 9 3
v -1 4 3
v -1 5 3
v -1 8 3
v -1 9 3
v 3 4 3
v 3 5 3
v 3 8 3
v 3 9 3
v 4 4 3
v 4 5 3
v 4 8 3
v 4 9 3
v -2 1 2
v -2 4 2
v -2 5 2
v -2 8 2
v -1 1 2
v -1 4 2
v 0 5 2
v 0 8 2
v 2 1 2
v 2 4 2
v 2 5 2
v 2 8 2
v 5 1 2
v 5 4 2
v 5 5 2
v 5 8 2
v -4 4 -0
v -4 5 -0
v -4 8 -0
v -4 9 -0
v -3 4 -0
v -3 5 -0
v -3 8 -0
v -3 9 -0
v 0 4 -0
v 0 5 -0
v 1 4 -0
v 1 5 -0
v -5 1 -1
v -5 4 -1
v -5 5 -1
v -5 8 -1
v -2 1 -1
v -2 4 -1
v -2 5 -1
v -2 8 -1
v -1 1 -1
v -1 4 -1
v 2 1 -1
v 2 4 -1
v 3 4 -2
v 3 5 -2
v 4 4 -2
v 4 5 -2
v 2 1 -3
v 2 4 -3
v 3 8 -3
v 3 9 -3
v 4 8 -3
v 4 9 -3
v 5 1 -3
v 5 4 -3
v -4 4 -4
v -4 5 -4
v -3 4 -4
v -3 5 -4
v -1 8 -4
v -1 9 -4
v 0 4 -4
v 0 5 -4
v 0 8 -4
v 0 9 -4
v 1 4 -4
v 1 5 -4
v 2 5 -4
v 2 8 -4
v 5 5 -4
v 5 8 -4
v -6 0 -6
v -6 8 -6
v 6 0 -6
v 6 8 -6
v -6 0 6
v 6 0 6
v -6 0 -6
v 6 0 -6
v -3 5 5
v 0 5 5
v 2 5 5
v 5 5 5
v -2 5 4
v -1 5 4
v 3 5 4
v 4 5 4
v -2 5 3
v -1 5 3
v 3 5 3
v 4 5 3
v -5 5 2
v -3 5 2
v -2 5 2
v 0 5 2
v 2 5 2
v 5 5 2
v -4 5 1
v -3 5 1
v -4 5 -0
v -3 5 -0
v -5 5 -1
v -2 5 -1
v 2 5 -1
v 3 5 -1
v 4 5 -1
v 5 5 -1
v -2 5 -2
v 1 5 -2
v 3 5 -2
v 4 5 -2
v 0 5 -3
v 1 5 -3
v 0 5 -4
v 1 5 -4
v 2 5 -4
v 5 5 -4
v -2 5 -5
v 1 5 -5
v -5 1 5
v -3 1 5
v 0 1 5
v 2 1 5
v -5 1 2
v -3 1 2
v -2 1 2
v -1 1 2
v 0 1 2
v 2 1 2
v 5 1 2
v 2 1 -0
v 5 1 -0
v -5 1 -1
v -2 1 -1
v -1 1 -1
v 2 1 -1
v -5 1 -2
v -2 1 -2
v -1 1 -2
v 2 1 -2
v 2 1 -3
v 5 1 -3
v -2 1 -5
v -1 1 -5
v 2 1 -5
v 5 1 -5
v -3 4 5
v 0 4 5
v 2 4 5
v 5 4 5
v -2 4 4
v -1 4 4
v 3 4 4
v 4 4 4
v -2 4 3
v -1 4 3
v 3 4 3
v 4 4 3
v -5 4 2
v -3 4 2
v -2 4 2
v -1 4 2
v 0 4 2
v 2 4 2
v 5 4 2
v -4 4 1
v -3 4 1
v 0 4 1
v 1 4 1
v -4 4 -0
v -3 4 -0
v 0 4 -0
v 1 4 -0
v 2 4 -0
v 5 4 -0
v -5 4 -1
v -2 4 -1
v -1 4 -1
v 2 4 -1
v 3 4 -1
v 4 4 -1
v -5 4 -2
v -2 4 -2
v -1 4 -2
v 2 4 -2
v 3 4 -2
v 4 4 -2
v -4 4 -3
v -3 4 -3
v 0 4 -3
v 1 4 -3
v 2 4 -3
v 5 4 -3
v -4 4 -4
v -3 4 -4
v 0 4 -4
v 1 4 -4
v -5 4 -5
v -2 4 -5
v -1 4 -5
v 2 4 -5
v 0 5 1
v 1 5 1
v 0 5 -0
v 1 5 -0
v -4 5 -3
v -3 5 -3
v -4 5 -4
v -3 5 -4
v -6 8 6
v 6 8 6
v -5 8 5
v -3 8 5
v 0 8 5
v 2 8 5
v 5 8 5
v -2 8 4
v -1 8 4
v 3 8 4
v 4 8 4
v -2 8 3
v -1 8 3
v 3 8 3
v 4 8 3
v -5 8 2
v -3 8 2
v -2 8 2
v 0 8 2
v 2 8 2
v 5 8 2
v -4 8 1
v -3 8 1
v -4 8 -0
v -3 8 -0
v -5 8 -1
v -2 8 -1
v 2 8 -1
v 5 8 -1
v -2 8 -2
v 1 8 -2
v 3 8 -2
v 4 8 -2
v -1 8 -3
v 0 8 -3
v 3 8 -3
v 4 8 -3
v -1 8 -4
v 0 8 -4
v 2 8 -4
v 5 8 -4
v -5 8 -5
v -2 8 -5
v 1 8 -5
v 5 8 -5
v -6 8 -6
v 6 8 -6
v -2 9 4
v -1 9 4
v 3 9 4
v 4 9 4
v -2 9 3
v -1 9 3
v 3 9 3
v 4 9 3
v -4 9 1
v -3 9 1
v -4 9 -0
v -3 9 -0
v 3 9 -2
v 4 9 -2
v -1 9 -3
v 0 9 -3
v 3 9 -3
v 4 9 -3
v -1 9 -4
v 0 9 -4

# faces
f 3/1/1 2/1/1 1/1/1
f 4/1/1 2/1/1 3/1/1
f 9/3/1 6/3/1 5/3/1
f 10/3/1 6/3/1 9/3/1
f 11/3/1 8/3/1 7/3/1
f 12/3/1 8/3/1 11/3/1
f 15/3/1 14/3/1 13/3/1
f 16/3/1 14/3/1 15/3/1
f 19/2/1 18/2/1 17/2/1
f 20/2/1 18/2/1 19/2/1
f 23/2/1 22/2/1 21/2/1
f 24/2/1 22/2/1 23/2/1
f 27/3/1 26/3/1 25/3/1
f 28/3/1 26/3/1 27/3/1
f 33/2/1 30/2/1 29/2/1
f 34/2/1 30/2/1 33/2/1
f 35/3/1 32/3/1 31/3/1
f 36/3/1 32/3/1 35/3/1
f 41/2/1 38/2/1 37/2/1
f 42/2/1 38/2/1 41/2/1
f 43/2/1 40/2/1 39/2/1
f 44/2/1 40/2/1 43/2/1
f 47/3/1 46/3/1 45/3/1
f 48/3/1 46/3/1 47/3/1
f 53/3/1 50/3/1 49/3/1
f 54/3/1 50/3/1 53/3/1
f 55/3/1 52/3/1 51/3/1
f 56/3/1 52/3/1 55/3/1
f 61/2/1 58/2/1 57/2/1
f 62/2/1 58/2/1 61/2/1
f 63/2/1 60/2/1 59/2/1
f 64/2/1 60/2/1 63/2/1
f 69/2/1 66/2/1 65/2/1
f 70/2/1 66/2/1 69/2/1
f 71/2/1 68/2/1 67/2/1
f 72/2/1 68/2/1 71/2/1
f 77/3/1 74/3/1 73/3/1
f 78/3/1 74/3/1 77/3/1
f 79/3/1 76/3/1 75/3/1
f 80/3/1 76/3/1 79/3/1
f 85/3/1 82/3/1 81/3/1
f 86/3/1 82/3/1 85/3/1
f 87/3/1 84/3/1 83/3/1
f 88/3/1 84/3/1 87/3/1
f 94/1/1 90/1/1 89/1/1
f 95/1/1 90/1/1 94/1/1
f 96/1/1 92/1/1 91/1/1
f 97/1/1 95/1/1 94/1/1
f 97/1/1 96/1/1 95/1/1
f 97/1/1 94/1/1 93/1/1
f 98/1/1 96/1/1 97/1/1
f 99/1/1 96/1/1 98/1/1
f 100/1/1 92/1/1 96/1/1
f 100/1/1 96/1/1 99/1/1
f 101/1/1 99/1/1 98/1/1
f 102/1/1 99/1/1 101/1/1
f 103/1/1 92/1/1 100/1/1
f 104/1/1 92/1/1 103/1/1
f 105/1/2 106/1/2 109/1/2
f 107/1/2 108/1/2 110/1/2
f 110/1/2 108/1/2 111/1/2
f 105/1/2 109/1/2 113/1/2
f 111/1/2 112/1/2 113/1/2
f 110/1/2 111/1/2 113/1/2
f 109/1/2 110/1/2 113/1/2
f 113/1/2 112/1/2 114/1/2
f 105/1/2 113/1/2 115/1/2
f 115/1/2 113/1/2 116/1/2
f 114/1/2 112/1/2 117/1/2
f 117/1/2 112/1/2 118/1/2
f 119/3/2 120/3/2 123/3/2
f 123/3/2 120/3/2 124/3/2
f 121/3/2 122/3/2 125/3/2
f 125/3/2 122/3/2 126/3/2
f 127/3/2 128/3/2 129/3/2
f 129/3/2 128/3/2 130/3/2
f 131/2/2 132/2/2 135/2/2
f 135/2/2 132/2/2 136/2/2
f 133/2/2 134/2/2 137/2/2
f 137/2/2 134/2/2 138/2/2
f 139/2/2 140/2/2 141/2/2
f 141/2/2 140/2/2 142/2/2
f 143/3/2 144/3/2 145/3/2
f 145/3/2 144/3/2 146/3/2
f 147/3/2 148/3/2 149/3/2
f 149/3/2 148/3/2 150/3/2
f 151/2/2 152/2/2 153/2/2
f 153/2/2 152/2/2 154/2/2
f 155/2/2 156/2/2 157/2/2
f 157/2/2 156/2/2 158/2/2
f 159/3/2 160/3/2 161/3/2
f 161/3/2 160/3/2 162/3/2
f 163/3/2 164/3/2 167/3/2
f 167/3/2 164/3/2 168/3/2
f 165/3/2 166/3/2 170/3/2
f 170/3/2 166/3/2 171/3/2
f 171/2/2 172/2/2 173/2/2
f 170/2/2 171/2/2 173/2/2
f 169/2/2 170/2/2 173/2/2
f 173/2/2 172/2/2 174/2/2
f 175/2/2 176/2/2 179/2/2
f 179/2/2 176/2/2 180/2/2
f 177/2/2 178/2/2 181/2/2
f 181/2/2 178/2/2 182/2/2
f 183/3/2 184/3/2 187/3/2
f 187/3/2 184/3/2 188/3/2
f 185/3/2 186/3/2 189/3/2
f 189/3/2 186/3/2 190/3/2
f 191/3/2 192/3/2 195/3/2
f 195/3/2 192/3/2 196/3/2
f 193/3/2 194/3/2 197/3/2
f 197/3/2 194/3/2 198/3/2
f 199/1/2 200/1/2 201/1/2
f 201/1/2 200/1/2 202/1/2
f 205/1/3 204/1/3 203/1/3
f 206/1/3 204/1/3 205/1/3
f 211/3/3 208/3/3 207/3/3
f 212/3/3 208/3/3 211/3/3
f 213/3/3 210/3/3 209/3/3
f 214/3/3 210/3/3 213/3/3
f 219/3/3 216/3/3 215/3/3
f 220/3/3 216/3/3 219/3/3
f 221/3/3 218/3/3 217/3/3
f 222/3/3 218/3/3 221/3/3
f 227/2/3 224/2/3 223/2/3
f 228/2/3 224/2/3 227/2/3
f 229/2/3 226/2/3 225/2/3
f 230/2/3 226/2/3 229/2/3
f 233/2/3 232/2/3 231/2/3
f 234/2/3 232/2/3 233/2/3
f 239/3/3 236/3/3 235/3/3
f 240/3/3 236/3/3 239/3/3
f 241/3/3 238/3/3 237/3/3
f 242/3/3 238/3/3 241/3/3
f 245/3/3 244/3/3 243/3/3
f 246/3/3 244/3/3 245/3/3
f 249/2/3 248/2/3 247/2/3
f 250/2/3 248/2/3 249/2/3
f 254/2/3 252/2/3 251/2/3
f 255/3/3 254/3/3 253/3/3
f 256/2/3 252/2/3 254/2/3
f 256/3/3 254/3/3 255/3/3
f 257/2/3 252/2/3 256/2/3
f 258/2/3 252/2/3 257/2/3
f 261/2/3 260/2/3 259/2/3
f 262/2/3 260/2/3 261/2/3
f 267/2/3 264/2/3 263/2/3
f 268/2/3 264/2/3 267/2/3
f 269/2/3 266/2/3 265/2/3
f 270/2/3 266/2/3 269/2/3
f 273/3/3 272/3/3 271/3/3
f 274/3/3 272/3/3 273/3/3
f 277/3/3 276/3/3 275/3/3
f 278/3/3 276/3/3 277/3/3
f 283/3/3 280/3/3 279/3/3
f 284/3/3 280/3/3 283/3/3
f 285/3/3 282/3/3 281/3/3
f 286/3/3 282/3/3 285/3/3
f 290/1/3 288/1/3 287/1/3
f 291/1/3 288/1/3 290/1/3
f 292/1/3 288/1/3 291/1/3
f 293/1/3 290/1/3 289/1/3
f 293/1/3 291/1/3 290/1/3
f 294/1/3 291/1/3 293/1/3
f 295/1/3 291/1/3 294/1/3
f 298/1/3 295/1/3 294/1/3
f 298/1/3 296/1/3 295/1/3
f 299/1/3 298/1/3 297/1/3
f 300/1/3 296/1/3 298/1/3
f 300/1/3 298/1/3 299/1/3
f 301/1/4 302/1/4 303/1/4
f 303/1/4 302/1/4 304/1/4
f 304/1/4 302/1/4 305/1/4
f 305/1/4 302/1/4 306/1/4
f 304/1/4 305/1/4 308/1/4
f 308/1/4 305/1/4 309/1/4
f 307/1/4 308/1/4 311/1/4
f 309/1/4 310/1/4 311/1/4
f 308/1/4 309/1/4 311/1/4
f 311/1/4 310/1/4 312/1/4
f 312/1/4 310/1/4 313/1/4
f 313/1/4 310/1/4 314/1/4
f 312/1/4 313/1/4 315/1/4
f 315/1/4 313/1/4 316/1/4
f 317/3/4 318/3/4 321/3/4
f 321/3/4 318/3/4 322/3/4
f 319/3/4 320/3/4 323/3/4
f 323/3/4 320/3/4 324/3/4
f 325/3/4 326/3/4 329/3/4
f 329/3/4 326/3/4 330/3/4
f 327/3/4 328/3/4 331/3/4
f 331/3/4 328/3/4 332/3/4
f 333/2/4 334/2/4 337/2/4
f 337/2/4 334/2/4 338/2/4
f 335/2/4 336/2/4 339/2/4
f 339/2/4 336/2/4 340/2/4
f 341/2/4 342/2/4 345/2/4
f 345/2/4 342/2/4 346/2/4
f 343/2/4 344/2/4 347/2/4
f 347/2/4 344/2/4 348/2/4
f 349/3/4 350/3/4 353/3/4
f 353/3/4 350/3/4 354/3/4
f 351/3/4 352/3/4 355/3/4
f 355/3/4 352/3/4 356/3/4
f 357/3/4 358/3/4 359/3/4
f 359/3/4 358/3/4 360/3/4
f 361/2/4 362/2/4 365/2/4
f 365/2/4 362/2/4 366/2/4
f 363/2/4 364/2/4 367/2/4
f 367/2/4 364/2/4 368/2/4
f 369/2/4 370/2/4 371/2/4
f 371/2/4 370/2/4 372/2/4
f 373/3/4 374/3/4 375/3/4
f 375/3/4 374/3/4 376/3/4
f 379/3/4 380/3/4 381/3/4
f 381/3/4 380/3/4 382/3/4
f 377/2/4 378/2/4 383/2/4
f 383/2/4 378/2/4 384/2/4
f 385/3/4 386/3/4 387/3/4
f 387/3/4 386/3/4 388/3/4
f 389/3/4 390/3/4 393/3/4
f 393/3/4 390/3/4 394/3/4
f 391/3/4 392/3/4 395/3/4
f 395/3/4 392/3/4 396/3/4
f 397/2/4 398/2/4 399/2/4
f 399/2/4 398/2/4 400/2/4
f 401/1/4 402/1/4 403/1/4
f 403/1/4 402/1/4 404/1/4
f 407/1/5 406/1/5 405/1/5
f 408/1/5 406/1/5 407/1/5
f 413/2/5 410/2/5 409/2/5
f 414/2/5 410/2/5 413/2/5
f 415/2/5 412/2/5 411/2/5
f 416/2/5 412/2/5 415/2/5
f 417/2/5 413/2/5 409/2/5
f 418/2/5 410/2/5 414/2/5
f 419/2/5 415/2/5 411/2/5
f 420/2/5 412/2/5 416/2/5
f 422/2/5 417/2/5 409/2/5
f 422/2/5 418/2/5 417/2/5
f 423/2/5 418/2/5 422/2/5
f 424/2/5 410/2/5 418/2/5
f 424/2/5 418/2/5 423/2/5
f 425/2/5 420/2/5 419/2/5
f 425/2/5 419/2/5 411/2/5
f 426/2/5 412/2/5 420/2/5
f 426/2/5 420/2/5 425/2/5
f 427/2/5 422/2/5 421/2/5
f 427/2/5 423/2/5 422/2/5
f 428/2/5 423/2/5 427/2/5
f 429/2/5 427/2/5 421/2/5
f 430/2/5 423/2/5 428/2/5
f 431/2/5 429/2/5 421/2/5
f 431/2/5 430/2/5 429/2/5
f 432/2/5 423/2/5 430/2/5
f 432/2/5 430/2/5 431/2/5
f 439/2/5 434/2/5 433/2/5
f 440/2/5 436/2/5 435/2/5
f 441/2/5 438/2/5 437/2/5
f 442/2/5 438/2/5 441/2/5
f 443/2/5 441/2/5 437/2/5
f 445/2/5 439/2/5 433/2/5
f 445/2/5 440/2/5 439/2/5
f 446/2/5 436/2/5 440/2/5
f 446/2/5 440/2/5 445/2/5
f 447/2/5 444/2/5 443/2/5
f 447/2/5 443/2/5 437/2/5
f 448/2/5 444/2/5 447/2/5
f 449/1/6 450/1/6 453/1/6
f 453/1/6 450/1/6 454/1/6
f 451/1/6 452/1/6 457/1/6
f 457/1/6 452/1/6 458/1/6
f 458/1/6 459/1/6 460/1/6
f 460/1/6 459/1/6 461/1/6
f 455/1/6 456/1/6 463/1/6
f 463/1/6 456/1/6 464/1/6
f 462/1/6 463/1/6 466/1/6
f 464/1/6 465/1/6 466/1/6
f 463/1/6 464/1/6 466/1/6
f 466/1/6 465/1/6 467/1/6
f 467/1/6 465/1/6 468/1/6
f 468/1/6 465/1/6 469/1/6
f 467/1/6 468/1/6 472/1/6
f 472/1/6 468/1/6 473/1/6
f 470/1/6 471/1/6 474/1/6
f 474/1/6 471/1/6 475/1/6
f 476/2/6 477/2/6 480/2/6
f 480/2/6 477/2/6 481/2/6
f 478/2/6 479/2/6 482/2/6
f 482/2/6 479/2/6 483/2/6
f 476/2/6 480/2/6 484/2/6
f 481/2/6 477/2/6 485/2/6
f 478/2/6 482/2/6 486/2/6
f 483/2/6 479/2/6 487/2/6
f 476/2/6 484/2/6 489/2/6
f 484/2/6 485/2/6 489/2/6
f 489/2/6 485/2/6 490/2/6
f 485/2/6 477/2/6 491/2/6
f 490/2/6 485/2/6 491/2/6
f 491/2/6 477/2/6 492/2/6
f 486/2/6 487/2/6 493/2/6
f 478/2/6 486/2/6 493/2/6
f 487/2/6 479/2/6 494/2/6
f 493/2/6 487/2/6 494/2/6
f 489/2/6 490/2/6 495/2/6
f 488/2/6 489/2/6 495/2/6
f 495/2/6 490/2/6 496/2/6
f 491/2/6 492/2/6 497/2/6
f 492/2/6 493/2/6 497/2/6
f 497/2/6 493/2/6 498/2/6
f 488/2/6 495/2/6 499/2/6
f 496/2/6 490/2/6 500/2/6
f 491/2/6 497/2/6 501/2/6
f 498/2/6 493/2/6 502/2/6
f 502/2/6 493/2/6 503/2/6
f 488/2/6 499/2/6 505/2/6
f 499/2/6 500/2/6 505/2/6
f 500/2/6 490/2/6 506/2/6
f 505/2/6 500/2/6 506/2/6
f 503/2/6 504/2/6 507/2/6
f 491/2/6 501/2/6 507/2/6
f 501/2/6 502/2/6 507/2/6
f 502/2/6 503/2/6 507/2/6
f 507/2/6 504/2/6 508/2/6
f 508/2/6 504/2/6 509/2/6
f 509/2/6 504/2/6 510/2/6
f 508/2/6 509/2/6 514/2/6
f 514/2/6 509/2/6 515/2/6
f 510/2/6 504/2/6 516/2/6
f 511/2/6 512/2/6 517/2/6
f 517/2/6 512/2/6 518/2/6
f 514/2/6 515/2/6 519/2/6
f 515/2/6 516/2/6 519/2/6
f 513/2/6 514/2/6 519/2/6
f 519/2/6 516/2/6 520/2/6
f 520/2/6 516/2/6 521/2/6
f 516/2/6 504/2/6 522/2/6
f 521/2/6 516/2/6 522/2/6
f 511/2/6 517/2/6 523/2/6
f 518/2/6 512/2/6 524/2/6
f 513/2/6 519/2/6 525/2/6
f 520/2/6 521/2/6 526/2/6
f 511/2/6 523/2/6 527/2/6
f 523/2/6 524/2/6 527/2/6
f 524/2/6 512/2/6 528/2/6
f 527/2/6 524/2/6 528/2/6
f 525/2/6 526/2/6 529/2/6
f 513/2/6 525/2/6 529/2/6
f 526/2/6 521/2/6 530/2/6
f 529/2/6 526/2/6 530/2/6
f 531/3/6 532/3/6 533/3/6
f 533/3/6 532/3/6 534/3/6
f 535/3/6 536/3/6 537/3/6
f 537/3/6 536/3/6 538/3/6
f 539/1/6 540/1/6 541/1/6
f 541/1/6 540/1/6 542/1/6
f 542/1/6 540/1/6 543/1/6
f 543/1/6 540/1/6 544/1/6
f 544/1/6 540/1/6 545/1/6
f 542/2/6 543/2/6 546/2/6
f 546/2/6 543/2/6 547/2/6
f 544/2/6 545/2/6 548/2/6
f 548/2/6 545/2/6 549/2/6
f 542/2/6 546/2/6 550/2/6
f 547/2/6 543/2/6 551/2/6
f 544/2/6 548/2/6 552/2/6
f 549/2/6 545/2/6 553/2/6
f 539/1/6 541/1/6 554/1/6
f 542/2/6 550/2/6 555/2/6
f 550/2/6 551/2/6 555/2/6
f 555/2/6 551/2/6 556/2/6
f 551/2/6 543/2/6 557/2/6
f 556/2/6 551/2/6 557/2/6
f 552/2/6 553/2/6 558/2/6
f 544/2/6 552/2/6 558/2/6
f 545/1/6 540/1/6 559/1/6
f 558/2/6 553/2/6 559/2/6
f 553/2/6 545/2/6 559/2/6
f 554/2/6 555/2/6 560/2/6
f 555/2/6 556/2/6 560/2/6
f 560/2/6 556/2/6 561/2/6
f 554/2/6 560/2/6 562/2/6
f 561/2/6 556/2/6 563/2/6
f 539/1/6 554/1/6 564/1/6
f 562/2/6 563/2/6 564/2/6
f 554/2/6 562/2/6 564/2/6
f 563/2/6 556/2/6 565/2/6
f 564/2/6 563/2/6 565/2/6
f 559/1/6 540/1/6 567/1/6
f 566/2/6 567/2/6 570/2/6
f 570/2/6 567/2/6 571/2/6
f 568/2/6 569/2/6 572/2/6
f 572/2/6 569/2/6 573/2/6
f 566/2/6 570/2/6 574/2/6
f 571/2/6 567/2/6 575/2/6
f 568/2/6 572/2/6 576/2/6
f 573/2/6 569/2/6 577/2/6
f 566/2/6 574/2/6 578/2/6
f 574/2/6 575/2/6 578/2/6
f 567/1/6 540/1/6 579/1/6
f 578/2/6 575/2/6 579/2/6
f 575/2/6 567/2/6 579/2/6
f 539/1/6 564/1/6 580/1/6
f 576/2/6 577/2/6 581/2/6
f 568/2/6 576/2/6 581/2/6
f 577/2/6 569/2/6 582/2/6
f 581/2/6 577/2/6 582/2/6
f 579/1/6 540/1/6 583/1/6
f 539/1/6 580/1/6 584/1/6
f 582/1/6 583/1/6 584/1/6
f 581/1/6 582/1/6 584/1/6
f 580/1/6 581/1/6 584/1/6
f 583/1/6 540/1/6 585/1/6
f 584/1/6 583/1/6 585/1/6
f 586/3/6 587/3/6 590/3/6
f 590/3/6 587/3/6 591/3/6
f 588/3/6 589/3/6 592/3/6
f 592/3/6 589/3/6 593/3/6
f 594/3/6 595/3/6 596/3/6
f 596/3/6 595/3/6 597/3/6
f 598/3/6 599/3/6 602/3/6
f 602/3/6 599/3/6 603/3/6
f 600/3/6 601/3/6 604/3/6
f 604/3/6 601/3/6 605/3/6
