# MagicaVoxel @ Ephtracy

# group
g obj_scrigno

# material
mtllib obj_scrigno.mtl
usemtl palette

# normals
vn -1 0 0
vn 1 0 0
vn 0 0 1
vn 0 0 -1
vn 0 -1 0
vn 0 1 0

# texcoords
vt 0.943359 0.5
vt 0.974609 0.5
vt 0.978516 0.5
vt 0.982422 0.5

# verts
v -4 3 1
v -4 3 -0
v -4 5 1
v -4 5 -0
v -3 0 8
v -3 0 -7
v -3 3 1
v -3 3 -0
v -3 4 8
v -3 4 1
v -3 4 -0
v -3 4 -7
v -3 5 8
v -3 5 1
v -3 5 -0
v -3 5 -7
v -3 6 8
v -3 6 -7
v 3 1 7
v 3 1 5
v 3 1 -4
v 3 1 -5
v 3 1 -6
v 3 2 -4
v 3 2 -5
v 3 2 -6
v 3 3 7
v 3 3 5
v 3 3 -4
v 3 3 -5
v 3 3 -6
v 3 4 7
v 3 4 -6
v 3 5 7
v 3 5 -6
v -2 1 7
v -2 1 -6
v -2 3 1
v -2 3 -0
v -2 4 7
v -2 4 1
v -2 4 -0
v -2 4 -6
v -2 5 7
v -2 5 1
v -2 5 -0
v -2 5 -6
v 4 0 8
v 4 0 -7
v 4 1 7
v 4 1 5
v 4 1 -4
v 4 1 -5
v 4 1 -6
v 4 2 -4
v 4 2 -5
v 4 2 -6
v 4 3 7
v 4 3 5
v 4 3 -4
v 4 3 -5
v 4 3 -6
v 4 4 8
v 4 4 -7
v 4 5 8
v 4 5 -7
v 4 6 8
v 4 6 -7
v -3 0 8
v -3 4 8
v -3 5 8
v -3 6 8
v 4 0 8
v 4 4 8
v 4 5 8
v 4 6 8
v -4 3 1
v -4 5 1
v -3 3 1
v -3 4 1
v -3 5 1
v -2 1 -6
v -2 4 -6
v -2 5 -6
v 3 1 -6
v 3 2 -6
v 3 3 -6
v 3 4 -6
v 3 5 -6
v -2 1 7
v -2 4 7
v -2 5 7
v 3 1 7
v 3 3 7
v 3 4 7
v 3 5 7
v -4 3 -0
v -4 5 -0
v -3 3 -0
v -3 4 -0
v -3 5 -0
v -3 0 -7
v -3 4 -7
v -3 5 -7
v -3 6 -7
v 4 0 -7
v 4 4 -7
v 4 5 -7
v 4 6 -7
v -3 0 8
v 4 0 8
v -3 0 -7
v 4 0 -7
v -4 3 1
v -3 3 1
v -4 3 -0
v -3 3 -0
v -2 5 7
v 3 5 7
v -2 5 1
v -2 5 -0
v -2 5 -6
v 3 5 -6
v -2 1 7
v 3 1 7
v 3 1 5
v 3 1 -4
v 3 1 -5
v -2 1 -6
v 3 1 -6
v -4 5 1
v -3 5 1
v -4 5 -0
v -3 5 -0
v -3 6 8
v 4 6 8
v -3 6 -7
v 4 6 -7

# faces
f 3/3/1 2/3/1 1/3/1
f 4/3/1 2/3/1 3/3/1
f 7/2/1 6/2/1 5/2/1
f 8/2/1 6/2/1 7/2/1
f 9/2/1 7/2/1 5/2/1
f 10/2/1 7/2/1 9/2/1
f 11/2/1 6/2/1 8/2/1
f 12/2/1 6/2/1 11/2/1
f 13/4/1 10/4/1 9/4/1
f 14/4/1 10/4/1 13/4/1
f 15/4/1 12/4/1 11/4/1
f 16/4/1 12/4/1 15/4/1
f 17/2/1 14/2/1 13/2/1
f 17/2/1 15/2/1 14/2/1
f 17/2/1 16/2/1 15/2/1
f 18/2/1 16/2/1 17/2/1
f 24/2/1 21/2/1 20/2/1
f 24/1/1 22/1/1 21/1/1
f 25/3/1 23/3/1 22/3/1
f 25/1/1 22/1/1 24/1/1
f 26/3/1 23/3/1 25/3/1
f 27/1/1 20/1/1 19/1/1
f 28/2/1 24/2/1 20/2/1
f 28/1/1 20/1/1 27/1/1
f 29/3/1 25/3/1 24/3/1
f 29/2/1 24/2/1 28/2/1
f 30/1/1 26/1/1 25/1/1
f 30/3/1 25/3/1 29/3/1
f 31/1/1 26/1/1 30/1/1
f 32/2/1 28/2/1 27/2/1
f 32/2/1 29/2/1 28/2/1
f 32/2/1 31/2/1 30/2/1
f 32/2/1 30/2/1 29/2/1
f 33/2/1 31/2/1 32/2/1
f 34/4/1 33/4/1 32/4/1
f 35/4/1 33/4/1 34/4/1
f 36/2/2 37/2/2 38/2/2
f 38/2/2 37/2/2 39/2/2
f 36/2/2 38/2/2 40/2/2
f 38/3/2 39/3/2 41/3/2
f 40/2/2 38/2/2 41/2/2
f 39/2/2 37/2/2 42/2/2
f 41/3/2 39/3/2 42/3/2
f 42/2/2 37/2/2 43/2/2
f 40/4/2 41/4/2 44/4/2
f 41/3/2 42/3/2 45/3/2
f 44/4/2 41/4/2 45/4/2
f 42/4/2 43/4/2 46/4/2
f 45/3/2 42/3/2 46/3/2
f 46/4/2 43/4/2 47/4/2
f 48/2/2 49/2/2 50/2/2
f 50/2/2 49/2/2 51/2/2
f 51/2/2 49/2/2 52/2/2
f 52/2/2 49/2/2 53/2/2
f 53/2/2 49/2/2 54/2/2
f 51/2/2 52/2/2 55/2/2
f 52/1/2 53/1/2 55/1/2
f 53/3/2 54/3/2 56/3/2
f 55/1/2 53/1/2 56/1/2
f 54/2/2 49/2/2 57/2/2
f 56/3/2 54/3/2 57/3/2
f 48/2/2 50/2/2 58/2/2
f 50/1/2 51/1/2 58/1/2
f 51/2/2 55/2/2 59/2/2
f 58/1/2 51/1/2 59/1/2
f 55/3/2 56/3/2 60/3/2
f 59/2/2 55/2/2 60/2/2
f 56/1/2 57/1/2 61/1/2
f 60/3/2 56/3/2 61/3/2
f 57/2/2 49/2/2 62/2/2
f 61/1/2 57/1/2 62/1/2
f 60/2/2 61/2/2 63/2/2
f 59/2/2 60/2/2 63/2/2
f 61/2/2 62/2/2 63/2/2
f 48/2/2 58/2/2 63/2/2
f 58/2/2 59/2/2 63/2/2
f 62/2/2 49/2/2 64/2/2
f 63/2/2 62/2/2 64/2/2
f 63/4/2 64/4/2 65/4/2
f 65/4/2 64/4/2 66/4/2
f 65/2/2 66/2/2 67/2/2
f 67/2/2 66/2/2 68/2/2
f 73/2/3 70/2/3 69/2/3
f 74/4/3 71/4/3 70/4/3
f 74/2/3 70/2/3 73/2/3
f 75/2/3 72/2/3 71/2/3
f 75/4/3 71/4/3 74/4/3
f 76/2/3 72/2/3 75/2/3
f 79/3/3 78/3/3 77/3/3
f 80/3/3 78/3/3 79/3/3
f 81/3/3 78/3/3 80/3/3
f 85/2/3 83/2/3 82/2/3
f 86/2/3 83/2/3 85/2/3
f 87/2/3 83/2/3 86/2/3
f 88/4/3 84/4/3 83/4/3
f 88/2/3 83/2/3 87/2/3
f 89/4/3 84/4/3 88/4/3
f 90/2/4 91/2/4 93/2/4
f 93/2/4 91/2/4 94/2/4
f 91/4/4 92/4/4 95/4/4
f 94/2/4 91/2/4 95/2/4
f 95/4/4 92/4/4 96/4/4
f 97/3/4 98/3/4 99/3/4
f 99/3/4 98/3/4 100/3/4
f 100/3/4 98/3/4 101/3/4
f 102/2/4 103/2/4 106/2/4
f 103/4/4 104/4/4 107/4/4
f 106/2/4 103/2/4 107/2/4
f 104/2/4 105/2/4 108/2/4
f 107/4/4 104/4/4 108/4/4
f 108/2/4 105/2/4 109/2/4
f 112/2/5 111/2/5 110/2/5
f 113/2/5 111/2/5 112/2/5
f 116/3/5 115/3/5 114/3/5
f 117/3/5 115/3/5 116/3/5
f 120/2/5 119/2/5 118/2/5
f 121/2/5 119/2/5 120/2/5
f 122/2/5 119/2/5 121/2/5
f 123/2/5 119/2/5 122/2/5
f 124/2/6 125/2/6 126/2/6
f 124/2/6 126/2/6 127/2/6
f 124/2/6 127/2/6 128/2/6
f 124/2/6 128/2/6 129/2/6
f 129/2/6 128/2/6 130/2/6
f 131/3/6 132/3/6 133/3/6
f 133/3/6 132/3/6 134/3/6
f 135/2/6 136/2/6 137/2/6
f 137/2/6 136/2/6 138/2/6
