# MagicaVoxel @ Ephtracy

# group
g place_classroom

# material
mtllib place_classroom.mtl
usemtl palette

# normals
vn -1 0 0
vn 1 0 0
vn 0 0 1
vn 0 0 -1
vn 0 -1 0
vn 0 1 0

# texcoords
vt 0.220703 0.5
vt 0.244141 0.5
vt 0.279297 0.5
vt 0.310547 0.5
vt 0.330078 0.5
vt 0.916016 0.5

# verts
v -63 0 63
v -63 0 -63
v -63 1 59
v -63 1 -59
v -63 60 63
v -63 60 59
v -63 60 -59
v -63 60 -63
v -41 9 41
v -41 9 18
v -41 9 -18
v -41 9 -41
v -41 11 41
v -41 11 18
v -41 11 -18
v -41 11 -41
v -40 1 40
v -40 1 19
v -40 1 -19
v -40 1 -40
v -40 9 40
v -40 9 19
v -40 9 -19
v -40 9 -40
v -13 8 41
v -13 8 18
v -13 8 -18
v -13 8 -41
v -13 10 41
v -13 10 18
v -13 10 -18
v -13 10 -41
v -12 1 40
v -12 1 19
v -12 1 -19
v -12 1 -40
v -12 8 40
v -12 8 19
v -12 8 -19
v -12 8 -40
v 24 12 16
v 24 12 -16
v 24 14 16
v 24 14 -16
v 26 1 14
v 26 1 -14
v 26 12 14
v 26 12 -14
v 46 9 -31
v 46 9 -55
v 46 10 -32
v 46 10 -43
v 46 10 -44
v 46 10 -54
v 46 42 -32
v 46 42 -43
v 46 42 -44
v 46 42 -54
v 46 43 -31
v 46 43 -55
v 53 1 -35
v 53 1 -39
v 53 1 -52
v 53 1 -56
v 53 9 -35
v 53 9 -39
v 53 9 -52
v 53 9 -55
v 53 10 -55
v 53 10 -56
v 58 20 24
v 58 20 -24
v 58 22 -12
v 58 22 -14
v 58 23 -4
v 58 23 -12
v 58 24 2
v 58 24 -4
v 58 24 -5
v 58 24 -14
v 58 25 1
v 58 25 -5
v 58 26 1
v 58 26 -0
v 58 27 2
v 58 27 -0
v 58 27 -5
v 58 27 -8
v 58 28 -3
v 58 28 -5
v 58 28 -8
v 58 29 -2
v 58 29 -3
v 58 29 -4
v 58 29 -5
v 58 29 -11
v 58 29 -13
v 58 30 -0
v 58 30 -2
v 58 30 -3
v 58 30 -4
v 58 30 -10
v 58 30 -11
v 58 30 -12
v 58 30 -13
v 58 31 -0
v 58 31 -3
v 58 31 -8
v 58 31 -10
v 58 31 -12
v 58 32 -6
v 58 32 -8
v 58 32 -10
v 58 33 -6
v 58 33 -8
v 58 34 -2
v 58 34 -4
v 58 34 -8
v 58 34 -10
v 58 35 -2
v 58 35 -3
v 58 35 -8
v 58 35 -9
v 58 35 -13
v 58 35 -14
v 58 36 4
v 58 36 1
v 58 36 -4
v 58 36 -5
v 58 36 -12
v 58 36 -13
v 58 37 -3
v 58 37 -4
v 58 37 -11
v 58 37 -12
v 58 37 -13
v 58 37 -14
v 58 38 -4
v 58 38 -5
v 58 38 -10
v 58 38 -11
v 58 38 -12
v 58 38 -13
v 58 39 4
v 58 39 1
v 58 39 -9
v 58 39 -12
v 58 43 24
v 58 43 -24
v 59 1 59
v 59 1 -35
v 59 1 -39
v 59 1 -52
v 59 1 -56
v 59 1 -59
v 59 9 -31
v 59 9 -32
v 59 9 -35
v 59 9 -39
v 59 9 -52
v 59 10 -55
v 59 10 -56
v 59 20 24
v 59 20 -24
v 59 42 -55
v 59 43 24
v 59 43 -24
v 59 43 -31
v 59 43 -55
v 59 60 59
v 59 60 -59
v -29 1 40
v -29 1 19
v -29 1 -19
v -29 1 -40
v -29 9 40
v -29 9 19
v -29 9 -19
v -29 9 -40
v -28 9 41
v -28 9 18
v -28 9 -18
v -28 9 -41
v -28 11 41
v -28 11 18
v -28 11 -18
v -28 11 -41
v -1 1 40
v -1 1 19
v -1 1 -19
v -1 1 -40
v -1 8 40
v -1 8 19
v -1 8 -19
v -1 8 -40
v 0 8 41
v 0 8 18
v 0 8 -18
v 0 8 -41
v 0 10 41
v 0 10 18
v 0 10 -18
v 0 10 -41
v 37 1 14
v 37 1 -14
v 37 12 14
v 37 12 -14
v 39 12 16
v 39 12 -16
v 39 14 16
v 39 14 -16
v 63 0 63
v 63 0 -63
v 63 60 63
v 63 60 -63
v -63 0 63
v -63 60 63
v 63 0 63
v 63 60 63
v -41 9 41
v -41 11 41
v -28 9 41
v -28 11 41
v -13 8 41
v -13 10 41
v 0 8 41
v 0 10 41
v -40 1 40
v -40 9 40
v -29 1 40
v -29 9 40
v -12 1 40
v -12 8 40
v -1 1 40
v -1 8 40
v 58 20 24
v 58 43 24
v 59 20 24
v 59 43 24
v 24 12 16
v 24 14 16
v 39 12 16
v 39 14 16
v 26 1 14
v 26 12 14
v 37 1 14
v 37 12 14
v -41 9 -18
v -41 11 -18
v -28 9 -18
v -28 11 -18
v -13 8 -18
v -13 10 -18
v 0 8 -18
v 0 10 -18
v -40 1 -19
v -40 9 -19
v -29 1 -19
v -29 9 -19
v -12 1 -19
v -12 8 -19
v -1 1 -19
v -1 8 -19
v 46 9 -31
v 46 43 -31
v 47 10 -31
v 47 42 -31
v 58 10 -31
v 58 42 -31
v 59 9 -31
v 59 43 -31
v 53 1 -35
v 53 9 -35
v 59 1 -35
v 59 9 -35
v 53 1 -52
v 53 9 -52
v 59 1 -52
v 59 9 -52
v -63 1 -59
v -63 60 -59
v 59 1 -59
v 59 60 -59
v -63 1 59
v -63 60 59
v 59 1 59
v 59 60 59
v -40 1 19
v -40 9 19
v -29 1 19
v -29 9 19
v -12 1 19
v -12 8 19
v -1 1 19
v -1 8 19
v -41 9 18
v -41 11 18
v -28 9 18
v -28 11 18
v -13 8 18
v -13 10 18
v 0 8 18
v 0 10 18
v 26 1 -14
v 26 12 -14
v 37 1 -14
v 37 12 -14
v 24 12 -16
v 24 14 -16
v 39 12 -16
v 39 14 -16
v 58 20 -24
v 58 43 -24
v 59 20 -24
v 59 43 -24
v 53 1 -39
v 53 9 -39
v 59 1 -39
v 59 9 -39
v -40 1 -40
v -40 9 -40
v -29 1 -40
v -29 9 -40
v -12 1 -40
v -12 8 -40
v -1 1 -40
v -1 8 -40
v -41 9 -41
v -41 11 -41
v -28 9 -41
v -28 11 -41
v -13 8 -41
v -13 10 -41
v 0 8 -41
v 0 10 -41
v 46 9 -55
v 46 43 -55
v 47 9 -55
v 47 42 -55
v 53 9 -55
v 53 10 -55
v 59 10 -55
v 59 42 -55
v 59 43 -55
v 53 1 -56
v 53 10 -56
v 59 1 -56
v 59 10 -56
v -63 0 -63
v -63 60 -63
v 63 0 -63
v 63 60 -63
v -63 0 63
v 63 0 63
v -40 0 40
v -29 0 40
v -12 0 40
v -1 0 40
v -40 0 19
v -29 0 19
v -12 0 19
v -1 0 19
v 26 0 14
v 37 0 14
v 26 0 -14
v 37 0 -14
v -40 0 -19
v -29 0 -19
v -12 0 -19
v -1 0 -19
v -40 0 -40
v -29 0 -40
v -12 0 -40
v -1 0 -40
v -63 0 -63
v 63 0 -63
v -13 8 41
v 0 8 41
v -12 8 40
v -1 8 40
v -12 8 19
v -1 8 19
v -13 8 18
v 0 8 18
v -13 8 -18
v 0 8 -18
v -12 8 -19
v -1 8 -19
v -12 8 -40
v -1 8 -40
v -13 8 -41
v 0 8 -41
v -41 9 41
v -28 9 41
v -40 9 40
v -29 9 40
v -40 9 19
v -29 9 19
v -41 9 18
v -28 9 18
v -41 9 -18
v -28 9 -18
v -40 9 -19
v -29 9 -19
v 46 9 -31
v 59 9 -31
v 47 9 -32
v 59 9 -32
v 53 9 -35
v 59 9 -35
v 53 9 -39
v 59 9 -39
v -40 9 -40
v -29 9 -40
v -41 9 -41
v -28 9 -41
v 53 9 -52
v 59 9 -52
v 46 9 -55
v 47 9 -55
v 53 9 -55
v 24 12 16
v 39 12 16
v 26 12 14
v 37 12 14
v 26 12 -14
v 37 12 -14
v 24 12 -16
v 39 12 -16
v 58 20 24
v 59 20 24
v 58 20 -24
v 59 20 -24
v -63 1 59
v 59 1 59
v -40 1 40
v -29 1 40
v -12 1 40
v -1 1 40
v -40 1 19
v -29 1 19
v -12 1 19
v -1 1 19
v 26 1 14
v 37 1 14
v 26 1 -14
v 37 1 -14
v -40 1 -19
v -29 1 -19
v -12 1 -19
v -1 1 -19
v 53 1 -35
v 59 1 -35
v 53 1 -39
v 59 1 -39
v -40 1 -40
v -29 1 -40
v -12 1 -40
v -1 1 -40
v 53 1 -52
v 59 1 -52
v 53 1 -56
v 59 1 -56
v -63 1 -59
v 59 1 -59
v -13 10 41
v 0 10 41
v -13 10 18
v 0 10 18
v -13 10 -18
v 0 10 -18
v -13 10 -41
v 0 10 -41
v 53 10 -55
v 59 10 -55
v 53 10 -56
v 59 10 -56
v -41 11 41
v -28 11 41
v -41 11 18
v -28 11 18
v -41 11 -18
v -28 11 -18
v -41 11 -41
v -28 11 -41
v 24 14 16
v 39 14 16
v 24 14 -16
v 39 14 -16
v 58 43 24
v 59 43 24
v 58 43 -24
v 59 43 -24
v 46 43 -31
v 59 43 -31
v 47 43 -32
v 58 43 -32
v 47 43 -54
v 58 43 -54
v 46 43 -55
v 59 43 -55
v -63 60 63
v 63 60 63
v -63 60 59
v 59 60 59
v -63 60 -59
v 59 60 -59
v -63 60 -63
v 63 60 -63

# faces
f 3/5/1 2/5/1 1/5/1
f 4/5/1 2/5/1 3/5/1
f 5/5/1 3/5/1 1/5/1
f 6/5/1 3/5/1 5/5/1
f 7/5/1 2/5/1 4/5/1
f 8/5/1 2/5/1 7/5/1
f 13/1/1 10/1/1 9/1/1
f 14/1/1 10/1/1 13/1/1
f 15/1/1 12/1/1 11/1/1
f 16/1/1 12/1/1 15/1/1
f 21/1/1 18/1/1 17/1/1
f 22/1/1 18/1/1 21/1/1
f 23/1/1 20/1/1 19/1/1
f 24/1/1 20/1/1 23/1/1
f 29/1/1 26/1/1 25/1/1
f 30/1/1 26/1/1 29/1/1
f 31/1/1 28/1/1 27/1/1
f 32/1/1 28/1/1 31/1/1
f 37/1/1 34/1/1 33/1/1
f 38/1/1 34/1/1 37/1/1
f 39/1/1 36/1/1 35/1/1
f 40/1/1 36/1/1 39/1/1
f 43/1/1 42/1/1 41/1/1
f 44/1/1 42/1/1 43/1/1
f 47/1/1 46/1/1 45/1/1
f 48/1/1 46/1/1 47/1/1
f 51/3/1 50/3/1 49/3/1
f 52/3/1 50/3/1 51/3/1
f 53/3/1 50/3/1 52/3/1
f 54/3/1 50/3/1 53/3/1
f 55/3/1 51/3/1 49/3/1
f 55/2/1 52/2/1 51/2/1
f 56/3/1 53/3/1 52/3/1
f 56/2/1 52/2/1 55/2/1
f 57/2/1 54/2/1 53/2/1
f 57/3/1 53/3/1 56/3/1
f 58/3/1 50/3/1 54/3/1
f 58/2/1 54/2/1 57/2/1
f 59/3/1 57/3/1 56/3/1
f 59/3/1 56/3/1 55/3/1
f 59/3/1 58/3/1 57/3/1
f 59/3/1 55/3/1 49/3/1
f 60/3/1 50/3/1 58/3/1
f 60/3/1 58/3/1 59/3/1
f 65/2/1 62/2/1 61/2/1
f 66/2/1 62/2/1 65/2/1
f 67/2/1 64/2/1 63/2/1
f 68/2/1 64/2/1 67/2/1
f 69/2/1 64/2/1 68/2/1
f 70/2/1 64/2/1 69/2/1
f 73/4/1 72/4/1 71/4/1
f 74/4/1 72/4/1 73/4/1
f 75/4/1 73/4/1 71/4/1
f 76/6/1 74/6/1 73/6/1
f 76/4/1 73/4/1 75/4/1
f 77/4/1 75/4/1 71/4/1
f 78/6/1 76/6/1 75/6/1
f 78/4/1 75/4/1 77/4/1
f 79/6/1 76/6/1 78/6/1
f 80/4/1 72/4/1 74/4/1
f 80/6/1 76/6/1 79/6/1
f 80/6/1 74/6/1 76/6/1
f 81/6/1 79/6/1 78/6/1
f 81/6/1 78/6/1 77/6/1
f 82/4/1 80/4/1 79/4/1
f 82/6/1 79/6/1 81/6/1
f 83/6/1 81/6/1 77/6/1
f 83/4/1 82/4/1 81/4/1
f 84/4/1 82/4/1 83/4/1
f 85/4/1 77/4/1 71/4/1
f 85/6/1 83/6/1 77/6/1
f 85/6/1 84/6/1 83/6/1
f 86/4/1 82/4/1 84/4/1
f 86/6/1 84/6/1 85/6/1
f 87/4/1 80/4/1 82/4/1
f 87/4/1 82/4/1 86/4/1
f 88/4/1 80/4/1 87/4/1
f 89/4/1 86/4/1 85/4/1
f 89/4/1 87/4/1 86/4/1
f 90/6/1 88/6/1 87/6/1
f 90/4/1 87/4/1 89/4/1
f 91/4/1 80/4/1 88/4/1
f 91/6/1 88/6/1 90/6/1
f 92/4/1 89/4/1 85/4/1
f 93/6/1 90/6/1 89/6/1
f 93/4/1 89/4/1 92/4/1
f 94/6/1 90/6/1 93/6/1
f 95/4/1 91/4/1 90/4/1
f 95/6/1 90/6/1 94/6/1
f 96/4/1 80/4/1 91/4/1
f 96/4/1 91/4/1 95/4/1
f 97/4/1 80/4/1 96/4/1
f 98/4/1 92/4/1 85/4/1
f 99/6/1 94/6/1 93/6/1
f 99/4/1 92/4/1 98/4/1
f 99/6/1 93/6/1 92/6/1
f 100/6/1 94/6/1 99/6/1
f 101/4/1 95/4/1 94/4/1
f 101/6/1 94/6/1 100/6/1
f 101/4/1 96/4/1 95/4/1
f 102/4/1 96/4/1 101/4/1
f 103/6/1 97/6/1 96/6/1
f 103/4/1 96/4/1 102/4/1
f 104/6/1 97/6/1 103/6/1
f 105/4/1 80/4/1 97/4/1
f 105/6/1 97/6/1 104/6/1
f 106/6/1 100/6/1 99/6/1
f 106/4/1 98/4/1 85/4/1
f 106/6/1 99/6/1 98/6/1
f 107/4/1 102/4/1 101/4/1
f 107/6/1 100/6/1 106/6/1
f 107/4/1 101/4/1 100/4/1
f 108/4/1 102/4/1 107/4/1
f 109/6/1 104/6/1 103/6/1
f 109/4/1 102/4/1 108/4/1
f 109/6/1 103/6/1 102/6/1
f 110/4/1 105/4/1 104/4/1
f 110/6/1 104/6/1 109/6/1
f 111/4/1 108/4/1 107/4/1
f 111/4/1 107/4/1 106/4/1
f 112/6/1 109/6/1 108/6/1
f 112/4/1 108/4/1 111/4/1
f 113/4/1 110/4/1 109/4/1
f 113/6/1 109/6/1 112/6/1
f 114/4/1 111/4/1 106/4/1
f 114/6/1 112/6/1 111/6/1
f 115/4/1 113/4/1 112/4/1
f 115/6/1 112/6/1 114/6/1
f 116/4/1 114/4/1 106/4/1
f 116/4/1 115/4/1 114/4/1
f 117/4/1 115/4/1 116/4/1
f 118/4/1 113/4/1 115/4/1
f 118/4/1 115/4/1 117/4/1
f 119/4/1 110/4/1 113/4/1
f 119/4/1 113/4/1 118/4/1
f 120/6/1 117/6/1 116/6/1
f 120/4/1 116/4/1 106/4/1
f 121/6/1 117/6/1 120/6/1
f 122/4/1 118/4/1 117/4/1
f 122/6/1 119/6/1 118/6/1
f 123/6/1 119/6/1 122/6/1
f 124/4/1 105/4/1 110/4/1
f 124/4/1 80/4/1 105/4/1
f 124/4/1 110/4/1 119/4/1
f 125/4/1 72/4/1 80/4/1
f 125/4/1 80/4/1 124/4/1
f 126/4/1 85/4/1 71/4/1
f 126/4/1 106/4/1 85/4/1
f 126/4/1 121/4/1 120/4/1
f 126/4/1 120/4/1 106/4/1
f 127/4/1 121/4/1 126/4/1
f 128/4/1 123/4/1 122/4/1
f 128/6/1 117/6/1 121/6/1
f 128/4/1 122/4/1 117/4/1
f 129/4/1 123/4/1 128/4/1
f 130/4/1 124/4/1 119/4/1
f 131/6/1 125/6/1 124/6/1
f 131/4/1 124/4/1 130/4/1
f 132/4/1 121/4/1 127/4/1
f 132/6/1 128/6/1 121/6/1
f 132/6/1 129/6/1 128/6/1
f 133/6/1 129/6/1 132/6/1
f 134/4/1 130/4/1 119/4/1
f 135/6/1 131/6/1 130/6/1
f 135/4/1 130/4/1 134/4/1
f 136/6/1 125/6/1 131/6/1
f 136/6/1 131/6/1 135/6/1
f 137/4/1 72/4/1 125/4/1
f 137/6/1 125/6/1 136/6/1
f 138/6/1 129/6/1 133/6/1
f 138/4/1 133/4/1 132/4/1
f 139/4/1 123/4/1 129/4/1
f 139/6/1 129/6/1 138/6/1
f 140/6/1 119/6/1 123/6/1
f 140/4/1 134/4/1 119/4/1
f 141/6/1 136/6/1 135/6/1
f 141/4/1 134/4/1 140/4/1
f 141/6/1 135/6/1 134/6/1
f 142/6/1 136/6/1 141/6/1
f 143/4/1 137/4/1 136/4/1
f 143/6/1 136/6/1 142/6/1
f 144/6/1 127/6/1 126/6/1
f 144/4/1 126/4/1 71/4/1
f 145/4/1 138/4/1 132/4/1
f 145/6/1 127/6/1 144/6/1
f 145/4/1 139/4/1 138/4/1
f 145/4/1 132/4/1 127/4/1
f 146/4/1 123/4/1 139/4/1
f 146/4/1 139/4/1 145/4/1
f 146/6/1 140/6/1 123/6/1
f 146/6/1 141/6/1 140/6/1
f 146/6/1 142/6/1 141/6/1
f 147/4/1 143/4/1 142/4/1
f 147/6/1 142/6/1 146/6/1
f 148/4/1 144/4/1 71/4/1
f 148/4/1 145/4/1 144/4/1
f 148/4/1 147/4/1 146/4/1
f 148/4/1 146/4/1 145/4/1
f 149/4/1 143/4/1 147/4/1
f 149/4/1 147/4/1 148/4/1
f 149/4/1 137/4/1 143/4/1
f 149/4/1 72/4/1 137/4/1
f 156/5/1 151/5/1 150/5/1
f 157/5/1 151/5/1 156/5/1
f 158/5/1 151/5/1 157/5/1
f 159/5/1 153/5/1 152/5/1
f 160/5/1 153/5/1 159/5/1
f 162/5/1 155/5/1 154/5/1
f 163/5/1 156/5/1 150/5/1
f 164/5/1 156/5/1 163/5/1
f 165/5/1 162/5/1 161/5/1
f 166/5/1 163/5/1 150/5/1
f 167/5/1 156/5/1 164/5/1
f 168/5/1 156/5/1 167/5/1
f 169/5/1 162/5/1 165/5/1
f 170/5/1 166/5/1 150/5/1
f 170/5/1 169/5/1 168/5/1
f 170/5/1 168/5/1 167/5/1
f 170/5/1 167/5/1 166/5/1
f 171/5/1 162/5/1 169/5/1
f 171/5/1 169/5/1 170/5/1
f 171/5/1 155/5/1 162/5/1
f 172/1/2 173/1/2 176/1/2
f 176/1/2 173/1/2 177/1/2
f 174/1/2 175/1/2 178/1/2
f 178/1/2 175/1/2 179/1/2
f 180/1/2 181/1/2 184/1/2
f 184/1/2 181/1/2 185/1/2
f 182/1/2 183/1/2 186/1/2
f 186/1/2 183/1/2 187/1/2
f 188/1/2 189/1/2 192/1/2
f 192/1/2 189/1/2 193/1/2
f 190/1/2 191/1/2 194/1/2
f 194/1/2 191/1/2 195/1/2
f 196/1/2 197/1/2 200/1/2
f 200/1/2 197/1/2 201/1/2
f 198/1/2 199/1/2 202/1/2
f 202/1/2 199/1/2 203/1/2
f 204/1/2 205/1/2 206/1/2
f 206/1/2 205/1/2 207/1/2
f 208/1/2 209/1/2 210/1/2
f 210/1/2 209/1/2 211/1/2
f 212/5/2 213/5/2 214/5/2
f 214/5/2 213/5/2 215/5/2
f 218/5/3 217/5/3 216/5/3
f 219/5/3 217/5/3 218/5/3
f 222/1/3 221/1/3 220/1/3
f 223/1/3 221/1/3 222/1/3
f 226/1/3 225/1/3 224/1/3
f 227/1/3 225/1/3 226/1/3
f 230/1/3 229/1/3 228/1/3
f 231/1/3 229/1/3 230/1/3
f 234/1/3 233/1/3 232/1/3
f 235/1/3 233/1/3 234/1/3
f 238/4/3 237/4/3 236/4/3
f 239/4/3 237/4/3 238/4/3
f 242/1/3 241/1/3 240/1/3
f 243/1/3 241/1/3 242/1/3
f 246/1/3 245/1/3 244/1/3
f 247/1/3 245/1/3 246/1/3
f 250/1/3 249/1/3 248/1/3
f 251/1/3 249/1/3 250/1/3
f 254/1/3 253/1/3 252/1/3
f 255/1/3 253/1/3 254/1/3
f 258/1/3 257/1/3 256/1/3
f 259/1/3 257/1/3 258/1/3
f 262/1/3 261/1/3 260/1/3
f 263/1/3 261/1/3 262/1/3
f 266/3/3 265/3/3 264/3/3
f 267/3/3 265/3/3 266/3/3
f 268/3/3 266/3/3 264/3/3
f 268/2/3 267/2/3 266/2/3
f 269/3/3 265/3/3 267/3/3
f 269/2/3 267/2/3 268/2/3
f 270/3/3 268/3/3 264/3/3
f 270/3/3 269/3/3 268/3/3
f 271/3/3 265/3/3 269/3/3
f 271/3/3 269/3/3 270/3/3
f 274/2/3 273/2/3 272/2/3
f 275/2/3 273/2/3 274/2/3
f 278/2/3 277/2/3 276/2/3
f 279/2/3 277/2/3 278/2/3
f 282/5/3 281/5/3 280/5/3
f 283/5/3 281/5/3 282/5/3
f 284/5/4 285/5/4 286/5/4
f 286/5/4 285/5/4 287/5/4
f 288/1/4 289/1/4 290/1/4
f 290/1/4 289/1/4 291/1/4
f 292/1/4 293/1/4 294/1/4
f 294/1/4 293/1/4 295/1/4
f 296/1/4 297/1/4 298/1/4
f 298/1/4 297/1/4 299/1/4
f 300/1/4 301/1/4 302/1/4
f 302/1/4 301/1/4 303/1/4
f 304/1/4 305/1/4 306/1/4
f 306/1/4 305/1/4 307/1/4
f 308/1/4 309/1/4 310/1/4
f 310/1/4 309/1/4 311/1/4
f 312/4/4 313/4/4 314/4/4
f 314/4/4 313/4/4 315/4/4
f 316/2/4 317/2/4 318/2/4
f 318/2/4 317/2/4 319/2/4
f 320/1/4 321/1/4 322/1/4
f 322/1/4 321/1/4 323/1/4
f 324/1/4 325/1/4 326/1/4
f 326/1/4 325/1/4 327/1/4
f 328/1/4 329/1/4 330/1/4
f 330/1/4 329/1/4 331/1/4
f 332/1/4 333/1/4 334/1/4
f 334/1/4 333/1/4 335/1/4
f 336/3/4 337/3/4 338/3/4
f 338/3/4 337/3/4 339/3/4
f 338/2/4 339/2/4 340/2/4
f 340/2/4 339/2/4 341/2/4
f 341/2/4 339/2/4 342/2/4
f 339/3/4 337/3/4 343/3/4
f 342/2/4 339/2/4 343/2/4
f 343/3/4 337/3/4 344/3/4
f 345/2/4 346/2/4 347/2/4
f 347/2/4 346/2/4 348/2/4
f 349/5/4 350/5/4 351/5/4
f 351/5/4 350/5/4 352/5/4
f 355/5/5 354/5/5 353/5/5
f 356/5/5 354/5/5 355/5/5
f 357/5/5 354/5/5 356/5/5
f 358/5/5 354/5/5 357/5/5
f 359/5/5 355/5/5 353/5/5
f 359/1/5 356/1/5 355/1/5
f 360/5/5 357/5/5 356/5/5
f 360/1/5 356/1/5 359/1/5
f 361/1/5 358/1/5 357/1/5
f 361/5/5 357/5/5 360/5/5
f 362/5/5 354/5/5 358/5/5
f 362/1/5 358/1/5 361/1/5
f 363/5/5 361/5/5 360/5/5
f 363/5/5 354/5/5 362/5/5
f 363/5/5 362/5/5 361/5/5
f 363/5/5 360/5/5 359/5/5
f 364/5/5 354/5/5 363/5/5
f 365/5/5 363/5/5 359/5/5
f 365/1/5 364/1/5 363/1/5
f 366/5/5 354/5/5 364/5/5
f 366/1/5 364/1/5 365/1/5
f 367/5/5 359/5/5 353/5/5
f 367/5/5 365/5/5 359/5/5
f 367/5/5 366/5/5 365/5/5
f 368/5/5 366/5/5 367/5/5
f 369/5/5 366/5/5 368/5/5
f 370/5/5 366/5/5 369/5/5
f 371/5/5 367/5/5 353/5/5
f 371/1/5 368/1/5 367/1/5
f 372/5/5 369/5/5 368/5/5
f 372/1/5 368/1/5 371/1/5
f 373/1/5 370/1/5 369/1/5
f 373/5/5 369/5/5 372/5/5
f 374/5/5 366/5/5 370/5/5
f 374/1/5 370/1/5 373/1/5
f 375/5/5 373/5/5 372/5/5
f 375/5/5 372/5/5 371/5/5
f 375/5/5 374/5/5 373/5/5
f 375/5/5 371/5/5 353/5/5
f 376/5/5 354/5/5 366/5/5
f 376/5/5 374/5/5 375/5/5
f 376/5/5 366/5/5 374/5/5
f 379/1/5 378/1/5 377/1/5
f 380/1/5 378/1/5 379/1/5
f 381/1/5 379/1/5 377/1/5
f 382/1/5 378/1/5 380/1/5
f 383/1/5 381/1/5 377/1/5
f 383/1/5 382/1/5 381/1/5
f 384/1/5 378/1/5 382/1/5
f 384/1/5 382/1/5 383/1/5
f 387/1/5 386/1/5 385/1/5
f 388/1/5 386/1/5 387/1/5
f 389/1/5 387/1/5 385/1/5
f 390/1/5 386/1/5 388/1/5
f 391/1/5 389/1/5 385/1/5
f 391/1/5 390/1/5 389/1/5
f 392/1/5 386/1/5 390/1/5
f 392/1/5 390/1/5 391/1/5
f 395/1/5 394/1/5 393/1/5
f 396/1/5 394/1/5 395/1/5
f 397/1/5 395/1/5 393/1/5
f 398/1/5 394/1/5 396/1/5
f 399/1/5 397/1/5 393/1/5
f 399/1/5 398/1/5 397/1/5
f 400/1/5 394/1/5 398/1/5
f 400/1/5 398/1/5 399/1/5
f 403/1/5 402/1/5 401/1/5
f 404/1/5 402/1/5 403/1/5
f 407/3/5 406/3/5 405/3/5
f 408/3/5 406/3/5 407/3/5
f 409/2/5 408/2/5 407/2/5
f 410/2/5 408/2/5 409/2/5
f 411/2/5 409/2/5 407/2/5
f 413/1/5 403/1/5 401/1/5
f 414/1/5 402/1/5 404/1/5
f 415/1/5 413/1/5 401/1/5
f 415/1/5 414/1/5 413/1/5
f 416/1/5 402/1/5 414/1/5
f 416/1/5 414/1/5 415/1/5
f 417/2/5 412/2/5 411/2/5
f 417/2/5 411/2/5 407/2/5
f 418/2/5 412/2/5 417/2/5
f 419/3/5 407/3/5 405/3/5
f 420/2/5 417/2/5 407/2/5
f 420/3/5 407/3/5 419/3/5
f 421/2/5 417/2/5 420/2/5
f 424/1/5 423/1/5 422/1/5
f 425/1/5 423/1/5 424/1/5
f 426/1/5 424/1/5 422/1/5
f 427/1/5 423/1/5 425/1/5
f 428/1/5 426/1/5 422/1/5
f 428/1/5 427/1/5 426/1/5
f 429/1/5 423/1/5 427/1/5
f 429/1/5 427/1/5 428/1/5
f 432/4/5 431/4/5 430/4/5
f 433/4/5 431/4/5 432/4/5
f 434/5/6 435/5/6 436/5/6
f 436/5/6 435/5/6 437/5/6
f 437/5/6 435/5/6 438/5/6
f 438/5/6 435/5/6 439/5/6
f 434/5/6 436/5/6 440/5/6
f 437/5/6 438/5/6 441/5/6
f 441/5/6 438/5/6 442/5/6
f 439/5/6 435/5/6 443/5/6
f 441/5/6 442/5/6 444/5/6
f 442/5/6 443/5/6 444/5/6
f 443/5/6 435/5/6 444/5/6
f 440/5/6 441/5/6 444/5/6
f 444/5/6 435/5/6 445/5/6
f 440/5/6 444/5/6 446/5/6
f 445/5/6 435/5/6 447/5/6
f 434/5/6 440/5/6 448/5/6
f 446/5/6 447/5/6 448/5/6
f 440/5/6 446/5/6 448/5/6
f 448/5/6 447/5/6 449/5/6
f 449/5/6 447/5/6 450/5/6
f 450/5/6 447/5/6 451/5/6
f 447/5/6 435/5/6 452/5/6
f 451/5/6 447/5/6 452/5/6
f 452/5/6 435/5/6 453/5/6
f 451/5/6 452/5/6 454/5/6
f 434/5/6 448/5/6 456/5/6
f 449/5/6 450/5/6 457/5/6
f 457/5/6 450/5/6 458/5/6
f 454/5/6 455/5/6 459/5/6
f 451/5/6 454/5/6 459/5/6
f 457/5/6 458/5/6 460/5/6
f 458/5/6 459/5/6 460/5/6
f 459/5/6 455/5/6 460/5/6
f 456/5/6 457/5/6 460/5/6
f 460/5/6 455/5/6 461/5/6
f 456/5/6 460/5/6 462/5/6
f 434/5/6 456/5/6 464/5/6
f 462/5/6 463/5/6 464/5/6
f 456/5/6 462/5/6 464/5/6
f 464/5/6 463/5/6 465/5/6
f 466/1/6 467/1/6 468/1/6
f 468/1/6 467/1/6 469/1/6
f 470/1/6 471/1/6 472/1/6
f 472/1/6 471/1/6 473/1/6
f 474/2/6 475/2/6 476/2/6
f 476/2/6 475/2/6 477/2/6
f 478/1/6 479/1/6 480/1/6
f 480/1/6 479/1/6 481/1/6
f 482/1/6 483/1/6 484/1/6
f 484/1/6 483/1/6 485/1/6
f 486/1/6 487/1/6 488/1/6
f 488/1/6 487/1/6 489/1/6
f 490/4/6 491/4/6 492/4/6
f 492/4/6 491/4/6 493/4/6
f 494/3/6 495/3/6 496/3/6
f 496/3/6 495/3/6 497/3/6
f 494/3/6 496/3/6 498/3/6
f 496/2/6 497/2/6 498/2/6
f 497/3/6 495/3/6 499/3/6
f 498/2/6 497/2/6 499/2/6
f 494/3/6 498/3/6 500/3/6
f 498/3/6 499/3/6 500/3/6
f 499/3/6 495/3/6 501/3/6
f 500/3/6 499/3/6 501/3/6
f 502/5/6 503/5/6 504/5/6
f 504/5/6 503/5/6 505/5/6
f 505/5/6 503/5/6 507/5/6
f 506/5/6 507/5/6 508/5/6
f 507/5/6 503/5/6 509/5/6
f 508/5/6 507/5/6 509/5/6
