# MagicaVoxel @ Ephtracy

# group
g place_bathroom

# material
mtllib place_bathroom.mtl
usemtl palette

# normals
vn -1 0 0
vn 1 0 0
vn 0 0 1
vn 0 0 -1
vn 0 -1 0
vn 0 1 0

# texcoords
vt 0.291016 0.5
vt 0.310547 0.5
vt 0.365234 0.5
vt 0.689453 0.5
vt 0.716797 0.5
vt 0.771484 0.5
vt 0.958984 0.5
vt 0.970703 0.5
vt 0.986328 0.5

# verts
v -63 0 63
v -63 0 -63
v -63 3 63
v -63 3 -63
v -63 62 63
v -63 62 -63
v -61 24 -0
v -61 24 -4
v -61 25 -0
v -61 25 -4
v -60 25 -1
v -60 25 -3
v -60 29 -1
v -60 29 -3
v -56 3 -49
v -56 3 -54
v -56 5 -1
v -56 5 -3
v -56 15 -49
v -56 15 -54
v -56 16 56
v -56 16 41
v -56 17 56
v -56 17 55
v -56 17 42
v -56 17 41
v -56 18 56
v -56 18 55
v -56 18 42
v -56 18 41
v -56 20 -1
v -56 20 -3
v -56 32 56
v -56 32 55
v -56 32 42
v -56 32 41
v -56 33 55
v -56 33 42
v -55 3 -48
v -55 3 -49
v -55 3 -54
v -55 3 -55
v -55 15 -48
v -55 15 -49
v -55 15 -54
v -55 15 -55
v -54 3 -47
v -54 3 -48
v -54 3 -55
v -54 3 -56
v -54 15 56
v -54 15 41
v -54 15 -47
v -54 15 -48
v -54 15 -55
v -54 15 -56
v -54 16 57
v -54 16 56
v -54 16 41
v -54 16 40
v -54 17 57
v -54 17 56
v -54 17 41
v -54 17 40
v -52 3 54
v -52 3 43
v -52 15 54
v -52 15 43
v -50 4 -48
v -50 4 -49
v -50 4 -54
v -50 4 -55
v -50 15 -48
v -50 15 -49
v -50 15 -54
v -50 15 -55
v -50 20 8
v -50 20 -12
v -50 24 8
v -50 24 -12
v -49 4 -49
v -49 4 -50
v -49 4 -53
v -49 4 -54
v -49 15 -49
v -49 15 -50
v -49 15 -53
v -49 15 -54
v -48 4 -50
v -48 4 -53
v -48 15 -50
v -48 15 -53
v -43 7 52
v -43 7 45
v -43 17 52
v -43 17 45
v -32 18 61
v -32 18 60
v -32 18 -37
v -32 18 -61
v -32 22 61
v -32 22 60
v -32 22 -37
v -32 22 -61
v -29 28 -59
v -29 28 -61
v -29 49 -59
v -29 49 -61
v -62 3 61
v -62 3 5
v -62 3 -9
v -62 3 -61
v -62 19 9
v -62 19 5
v -62 19 -9
v -62 19 -13
v -62 24 9
v -62 24 -13
v -62 62 61
v -62 62 -61
v -59 20 8
v -59 20 -12
v -59 24 8
v -59 24 -0
v -59 24 -4
v -59 24 -12
v -59 25 -0
v -59 25 -1
v -59 25 -3
v -59 25 -4
v -59 28 -1
v -59 28 -3
v -58 5 -1
v -58 5 -3
v -58 20 -1
v -58 20 -3
v -57 28 -1
v -57 28 -3
v -57 29 -1
v -57 29 -3
v -55 3 5
v -55 3 -9
v -55 4 -50
v -55 4 -53
v -55 15 -50
v -55 15 -53
v -55 17 55
v -55 17 42
v -55 18 56
v -55 18 55
v -55 18 42
v -55 18 41
v -55 19 5
v -55 19 -9
v -55 32 56
v -55 32 55
v -55 32 42
v -55 32 41
v -55 33 55
v -55 33 42
v -54 4 -49
v -54 4 -50
v -54 4 -53
v -54 4 -54
v -54 15 -49
v -54 15 -50
v -54 15 -53
v -54 15 -54
v -53 4 -48
v -53 4 -49
v -53 4 -54
v -53 4 -55
v -53 15 -48
v -53 15 -49
v -53 15 -54
v -53 15 -55
v -50 7 52
v -50 7 45
v -50 17 52
v -50 17 45
v -49 3 -47
v -49 3 -48
v -49 3 -55
v -49 3 -56
v -49 15 -47
v -49 15 -48
v -49 15 -55
v -49 15 -56
v -49 19 9
v -49 19 -13
v -49 24 9
v -49 24 -13
v -48 3 -48
v -48 3 -49
v -48 3 -54
v -48 3 -55
v -48 15 -48
v -48 15 -49
v -48 15 -54
v -48 15 -55
v -47 3 -49
v -47 3 -54
v -47 15 -49
v -47 15 -54
v -40 3 54
v -40 3 43
v -40 15 54
v -40 15 43
v -38 15 56
v -38 15 41
v -38 16 57
v -38 16 56
v -38 16 41
v -38 16 40
v -38 17 57
v -38 17 56
v -38 17 41
v -38 17 40
v -37 16 56
v -37 16 41
v -37 17 56
v -37 17 41
v -3 28 -59
v -3 28 -61
v -3 49 -59
v -3 49 -61
v 36 18 61
v 36 18 60
v 36 18 -37
v 36 18 -61
v 36 22 61
v 36 22 60
v 36 22 -37
v 36 22 -61
v 39 3 63
v 39 3 61
v 39 4 -61
v 39 4 -63
v 39 62 63
v 39 62 61
v 39 62 -61
v 39 62 -63
v 51 3 -61
v 51 3 -63
v 51 4 -61
v 51 4 -63
v 63 0 63
v 63 0 -63
v 63 3 63
v 63 3 -63
v -63 0 63
v -63 3 63
v -63 62 63
v 39 3 63
v 39 62 63
v 63 0 63
v 63 3 63
v -54 16 57
v -54 17 57
v -38 16 57
v -38 17 57
v -56 16 56
v -56 17 56
v -56 18 56
v -56 32 56
v -55 18 56
v -55 32 56
v -54 15 56
v -54 16 56
v -54 17 56
v -38 15 56
v -38 16 56
v -38 17 56
v -37 16 56
v -37 17 56
v -56 17 55
v -56 18 55
v -56 32 55
v -56 33 55
v -55 17 55
v -55 18 55
v -55 32 55
v -55 33 55
v -52 3 54
v -52 15 54
v -40 3 54
v -40 15 54
v -50 7 45
v -50 17 45
v -43 7 45
v -43 17 45
v -62 19 9
v -62 24 9
v -49 19 9
v -49 24 9
v -62 3 5
v -62 19 5
v -55 3 5
v -55 19 5
v -61 24 -0
v -61 25 -0
v -59 24 -0
v -59 25 -0
v -60 25 -1
v -60 29 -1
v -59 25 -1
v -59 28 -1
v -57 28 -1
v -57 29 -1
v -58 5 -3
v -58 20 -3
v -56 5 -3
v -56 20 -3
v -59 20 -12
v -59 24 -12
v -50 20 -12
v -50 24 -12
v -32 18 -37
v -32 22 -37
v 36 18 -37
v 36 22 -37
v -54 3 -47
v -54 15 -47
v -49 3 -47
v -49 15 -47
v -55 3 -48
v -55 15 -48
v -54 3 -48
v -54 15 -48
v -49 3 -48
v -49 15 -48
v -48 3 -48
v -48 15 -48
v -56 3 -49
v -56 15 -49
v -55 3 -49
v -55 15 -49
v -48 3 -49
v -48 15 -49
v -47 3 -49
v -47 15 -49
v -55 4 -53
v -55 15 -53
v -54 4 -53
v -54 15 -53
v -49 4 -53
v -49 15 -53
v -48 4 -53
v -48 15 -53
v -54 4 -54
v -54 15 -54
v -53 4 -54
v -53 15 -54
v -50 4 -54
v -50 15 -54
v -49 4 -54
v -49 15 -54
v -53 4 -55
v -53 15 -55
v -50 4 -55
v -50 15 -55
v -29 28 -59
v -29 49 -59
v -19 33 -59
v -19 34 -59
v -18 31 -59
v -18 33 -59
v -18 34 -59
v -17 30 -59
v -17 31 -59
v -17 33 -59
v -16 31 -59
v -16 42 -59
v -15 31 -59
v -15 42 -59
v -14 30 -59
v -14 31 -59
v -14 33 -59
v -13 31 -59
v -13 33 -59
v -13 34 -59
v -12 33 -59
v -12 34 -59
v -3 28 -59
v -3 49 -59
v -62 3 -61
v -62 62 -61
v -32 18 -61
v -32 22 -61
v -29 28 -61
v -29 49 -61
v -3 28 -61
v -3 49 -61
v 17 3 -61
v 17 4 -61
v 36 18 -61
v 36 22 -61
v 39 4 -61
v 39 62 -61
v 51 3 -61
v 51 4 -61
v -62 3 61
v -62 62 61
v -32 18 61
v -32 22 61
v 36 18 61
v 36 22 61
v 39 3 61
v 39 62 61
v -32 18 60
v -32 22 60
v 36 18 60
v 36 22 60
v -50 7 52
v -50 17 52
v -43 7 52
v -43 17 52
v -52 3 43
v -52 15 43
v -40 3 43
v -40 15 43
v -56 17 42
v -56 18 42
v -56 32 42
v -56 33 42
v -55 17 42
v -55 18 42
v -55 32 42
v -55 33 42
v -56 16 41
v -56 17 41
v -56 18 41
v -56 32 41
v -55 18 41
v -55 32 41
v -54 15 41
v -54 16 41
v -54 17 41
v -38 15 41
v -38 16 41
v -38 17 41
v -37 16 41
v -37 17 41
v -54 16 40
v -54 17 40
v -38 16 40
v -38 17 40
v -59 20 8
v -59 24 8
v -50 20 8
v -50 24 8
v -58 5 -1
v -58 20 -1
v -56 5 -1
v -56 20 -1
v -60 25 -3
v -60 29 -3
v -59 25 -3
v -59 28 -3
v -57 28 -3
v -57 29 -3
v -61 24 -4
v -61 25 -4
v -59 24 -4
v -59 25 -4
v -62 3 -9
v -62 19 -9
v -55 3 -9
v -55 19 -9
v -62 19 -13
v -62 24 -13
v -49 19 -13
v -49 24 -13
v -53 4 -48
v -53 15 -48
v -50 4 -48
v -50 15 -48
v -54 4 -49
v -54 15 -49
v -53 4 -49
v -53 15 -49
v -50 4 -49
v -50 15 -49
v -49 4 -49
v -49 15 -49
v -55 4 -50
v -55 15 -50
v -54 4 -50
v -54 15 -50
v -49 4 -50
v -49 15 -50
v -48 4 -50
v -48 15 -50
v -56 3 -54
v -56 15 -54
v -55 3 -54
v -55 15 -54
v -48 3 -54
v -48 15 -54
v -47 3 -54
v -47 15 -54
v -55 3 -55
v -55 15 -55
v -54 3 -55
v -54 15 -55
v -49 3 -55
v -49 15 -55
v -48 3 -55
v -48 15 -55
v -54 3 -56
v -54 15 -56
v -49 3 -56
v -49 15 -56
v -63 0 -63
v -63 3 -63
v -63 62 -63
v 17 3 -63
v 17 4 -63
v 39 4 -63
v 39 62 -63
v 51 3 -63
v 51 4 -63
v 63 0 -63
v 63 3 -63
v -63 0 63
v 63 0 63
v -63 0 -63
v 63 0 -63
v -54 15 56
v -38 15 56
v -52 15 54
v -40 15 54
v -52 15 43
v -40 15 43
v -54 15 41
v -38 15 41
v -54 16 57
v -38 16 57
v -56 16 56
v -54 16 56
v -38 16 56
v -37 16 56
v -56 16 41
v -54 16 41
v -38 16 41
v -37 16 41
v -54 16 40
v -38 16 40
v -32 18 61
v 36 18 61
v -32 18 60
v 36 18 60
v -56 18 56
v -55 18 56
v -56 18 55
v -55 18 55
v -56 18 42
v -55 18 42
v -56 18 41
v -55 18 41
v -32 18 -37
v 36 18 -37
v -32 18 -61
v 36 18 -61
v -62 19 9
v -49 19 9
v -62 19 5
v -55 19 5
v -62 19 -9
v -55 19 -9
v -62 19 -13
v -49 19 -13
v -59 28 -1
v -57 28 -1
v -59 28 -3
v -57 28 -3
v -29 28 -59
v -3 28 -59
v -29 28 -61
v -3 28 -61
v 39 3 63
v 63 3 63
v -62 3 61
v 39 3 61
v -52 3 54
v -40 3 54
v -52 3 43
v -40 3 43
v -62 3 5
v -55 3 5
v -62 3 -9
v -55 3 -9
v -54 3 -47
v -49 3 -47
v -55 3 -48
v -54 3 -48
v -49 3 -48
v -48 3 -48
v -56 3 -49
v -55 3 -49
v -48 3 -49
v -47 3 -49
v -56 3 -54
v -55 3 -54
v -48 3 -54
v -47 3 -54
v -55 3 -55
v -54 3 -55
v -49 3 -55
v -48 3 -55
v -54 3 -56
v -49 3 -56
v -62 3 -61
v 17 3 -61
v 51 3 -61
v 51 3 -63
v 63 3 -63
v -53 4 -48
v -50 4 -48
v -54 4 -49
v -53 4 -49
v -50 4 -49
v -49 4 -49
v -55 4 -50
v -54 4 -50
v -49 4 -50
v -48 4 -50
v -55 4 -53
v -54 4 -53
v -49 4 -53
v -48 4 -53
v -54 4 -54
v -53 4 -54
v -50 4 -54
v -49 4 -54
v -53 4 -55
v -50 4 -55
v 39 4 -61
v 51 4 -61
v 39 4 -63
v 51 4 -63
v -58 5 -1
v -56 5 -1
v -58 5 -3
v -56 5 -3
v -50 7 52
v -43 7 52
v -50 7 45
v -43 7 45
v -54 15 -47
v -49 15 -47
v -55 15 -48
v -54 15 -48
v -53 15 -48
v -50 15 -48
v -49 15 -48
v -48 15 -48
v -56 15 -49
v -55 15 -49
v -54 15 -49
v -53 15 -49
v -50 15 -49
v -49 15 -49
v -48 15 -49
v -47 15 -49
v -55 15 -50
v -54 15 -50
v -49 15 -50
v -48 15 -50
v -55 15 -53
v -54 15 -53
v -49 15 -53
v -48 15 -53
v -56 15 -54
v -55 15 -54
v -54 15 -54
v -53 15 -54
v -50 15 -54
v -49 15 -54
v -48 15 -54
v -47 15 -54
v -55 15 -55
v -54 15 -55
v -53 15 -55
v -50 15 -55
v -49 15 -55
v -48 15 -55
v -54 15 -56
v -49 15 -56
v -54 17 57
v -38 17 57
v -56 17 56
v -54 17 56
v -38 17 56
v -37 17 56
v -56 17 55
v -55 17 55
v -50 17 52
v -43 17 52
v -50 17 45
v -43 17 45
v -56 17 42
v -55 17 42
v -56 17 41
v -54 17 41
v -38 17 41
v -37 17 41
v -54 17 40
v -38 17 40
v -59 20 8
v -50 20 8
v -58 20 -1
v -56 20 -1
v -58 20 -3
v -56 20 -3
v -59 20 -12
v -50 20 -12
v -32 22 61
v 36 22 61
v -32 22 60
v 36 22 60
v -32 22 -37
v 36 22 -37
v -32 22 -61
v 36 22 -61
v -62 24 9
v -49 24 9
v -59 24 8
v -50 24 8
v -61 24 -0
v -59 24 -0
v -61 24 -4
v -59 24 -4
v -59 24 -12
v -50 24 -12
v -62 24 -13
v -49 24 -13
v -61 25 -0
v -59 25 -0
v -60 25 -1
v -59 25 -1
v -60 25 -3
v -59 25 -3
v -61 25 -4
v -59 25 -4
v -60 29 -1
v -57 29 -1
v -60 29 -3
v -57 29 -3
v -56 32 56
v -55 32 56
v -56 32 55
v -55 32 55
v -56 32 42
v -55 32 42
v -56 32 41
v -55 32 41
v -56 33 55
v -55 33 55
v -56 33 42
v -55 33 42
v -29 49 -59
v -3 49 -59
v -29 49 -61
v -3 49 -61
v -63 62 63
v 39 62 63
v -62 62 61
v 39 62 61
v -62 62 -61
v 39 62 -61
v -63 62 -63
v 39 62 -63

# faces
f 3/4/1 2/4/1 1/4/1
f 4/4/1 2/4/1 3/4/1
f 5/3/1 4/3/1 3/3/1
f 6/3/1 4/3/1 5/3/1
f 9/8/1 8/8/1 7/8/1
f 10/8/1 8/8/1 9/8/1
f 13/8/1 12/8/1 11/8/1
f 14/8/1 12/8/1 13/8/1
f 19/9/1 16/9/1 15/9/1
f 20/9/1 16/9/1 19/9/1
f 23/7/1 22/7/1 21/7/1
f 24/7/1 22/7/1 23/7/1
f 25/7/1 22/7/1 24/7/1
f 26/7/1 22/7/1 25/7/1
f 28/7/1 25/7/1 24/7/1
f 29/7/1 25/7/1 28/7/1
f 31/7/1 18/7/1 17/7/1
f 32/7/1 18/7/1 31/7/1
f 33/7/1 30/7/1 29/7/1
f 33/7/1 29/7/1 28/7/1
f 33/7/1 28/7/1 27/7/1
f 34/7/1 30/7/1 33/7/1
f 35/7/1 30/7/1 34/7/1
f 36/7/1 30/7/1 35/7/1
f 37/7/1 35/7/1 34/7/1
f 38/7/1 35/7/1 37/7/1
f 43/9/1 40/9/1 39/9/1
f 44/9/1 40/9/1 43/9/1
f 45/9/1 42/9/1 41/9/1
f 46/9/1 42/9/1 45/9/1
f 53/9/1 48/9/1 47/9/1
f 54/9/1 48/9/1 53/9/1
f 55/9/1 50/9/1 49/9/1
f 56/9/1 50/9/1 55/9/1
f 58/7/1 52/7/1 51/7/1
f 59/7/1 52/7/1 58/7/1
f 61/7/1 58/7/1 57/7/1
f 62/7/1 58/7/1 61/7/1
f 63/7/1 60/7/1 59/7/1
f 64/7/1 60/7/1 63/7/1
f 67/7/1 66/7/1 65/7/1
f 68/7/1 66/7/1 67/7/1
f 73/9/1 70/9/1 69/9/1
f 74/9/1 70/9/1 73/9/1
f 75/9/1 72/9/1 71/9/1
f 76/9/1 72/9/1 75/9/1
f 79/7/1 78/7/1 77/7/1
f 80/7/1 78/7/1 79/7/1
f 85/9/1 82/9/1 81/9/1
f 86/9/1 82/9/1 85/9/1
f 87/9/1 84/9/1 83/9/1
f 88/9/1 84/9/1 87/9/1
f 91/9/1 90/9/1 89/9/1
f 92/9/1 90/9/1 91/9/1
f 95/7/1 94/7/1 93/7/1
f 96/7/1 94/7/1 95/7/1
f 101/1/1 98/1/1 97/1/1
f 102/1/1 98/1/1 101/1/1
f 103/1/1 100/1/1 99/1/1
f 104/1/1 100/1/1 103/1/1
f 107/6/1 106/6/1 105/6/1
f 108/6/1 106/6/1 107/6/1
f 109/3/2 110/3/2 113/3/2
f 113/3/2 110/3/2 114/3/2
f 111/3/2 112/3/2 115/3/2
f 115/3/2 112/3/2 116/3/2
f 109/3/2 113/3/2 117/3/2
f 116/3/2 112/3/2 118/3/2
f 109/3/2 117/3/2 119/3/2
f 117/3/2 118/3/2 119/3/2
f 118/3/2 112/3/2 120/3/2
f 119/3/2 118/3/2 120/3/2
f 121/7/2 122/7/2 123/7/2
f 123/7/2 122/7/2 124/7/2
f 124/7/2 122/7/2 125/7/2
f 125/7/2 122/7/2 126/7/2
f 124/8/2 125/8/2 127/8/2
f 127/8/2 125/8/2 128/8/2
f 128/8/2 125/8/2 129/8/2
f 129/8/2 125/8/2 130/8/2
f 128/8/2 129/8/2 131/8/2
f 131/8/2 129/8/2 132/8/2
f 133/7/2 134/7/2 135/7/2
f 135/7/2 134/7/2 136/7/2
f 137/8/2 138/8/2 139/8/2
f 139/8/2 138/8/2 140/8/2
f 143/9/2 144/9/2 145/9/2
f 145/9/2 144/9/2 146/9/2
f 147/7/2 148/7/2 150/7/2
f 150/7/2 148/7/2 151/7/2
f 141/7/2 142/7/2 153/7/2
f 153/7/2 142/7/2 154/7/2
f 151/7/2 152/7/2 155/7/2
f 149/7/2 150/7/2 155/7/2
f 150/7/2 151/7/2 155/7/2
f 155/7/2 152/7/2 156/7/2
f 156/7/2 152/7/2 157/7/2
f 157/7/2 152/7/2 158/7/2
f 156/7/2 157/7/2 159/7/2
f 159/7/2 157/7/2 160/7/2
f 161/9/2 162/9/2 165/9/2
f 165/9/2 162/9/2 166/9/2
f 163/9/2 164/9/2 167/9/2
f 167/9/2 164/9/2 168/9/2
f 169/9/2 170/9/2 173/9/2
f 173/9/2 170/9/2 174/9/2
f 171/9/2 172/9/2 175/9/2
f 175/9/2 172/9/2 176/9/2
f 177/7/2 178/7/2 179/7/2
f 179/7/2 178/7/2 180/7/2
f 181/9/2 182/9/2 185/9/2
f 185/9/2 182/9/2 186/9/2
f 183/9/2 184/9/2 187/9/2
f 187/9/2 184/9/2 188/9/2
f 189/7/2 190/7/2 191/7/2
f 191/7/2 190/7/2 192/7/2
f 193/9/2 194/9/2 197/9/2
f 197/9/2 194/9/2 198/9/2
f 195/9/2 196/9/2 199/9/2
f 199/9/2 196/9/2 200/9/2
f 201/9/2 202/9/2 203/9/2
f 203/9/2 202/9/2 204/9/2
f 205/7/2 206/7/2 207/7/2
f 207/7/2 206/7/2 208/7/2
f 209/7/2 210/7/2 212/7/2
f 212/7/2 210/7/2 213/7/2
f 211/7/2 212/7/2 215/7/2
f 215/7/2 212/7/2 216/7/2
f 213/7/2 214/7/2 217/7/2
f 217/7/2 214/7/2 218/7/2
f 219/7/2 220/7/2 221/7/2
f 221/7/2 220/7/2 222/7/2
f 223/6/2 224/6/2 225/6/2
f 225/6/2 224/6/2 226/6/2
f 227/1/2 228/1/2 231/1/2
f 231/1/2 228/1/2 232/1/2
f 229/1/2 230/1/2 233/1/2
f 233/1/2 230/1/2 234/1/2
f 235/3/2 236/3/2 239/3/2
f 239/3/2 236/3/2 240/3/2
f 237/3/2 238/3/2 241/3/2
f 241/3/2 238/3/2 242/3/2
f 243/2/2 244/2/2 245/2/2
f 245/2/2 244/2/2 246/2/2
f 247/4/2 248/4/2 249/4/2
f 249/4/2 248/4/2 250/4/2
f 254/4/3 252/4/3 251/4/3
f 254/3/3 253/3/3 252/3/3
f 255/3/3 253/3/3 254/3/3
f 256/4/3 254/4/3 251/4/3
f 257/4/3 254/4/3 256/4/3
f 260/7/3 259/7/3 258/7/3
f 261/7/3 259/7/3 260/7/3
f 266/7/3 265/7/3 264/7/3
f 267/7/3 265/7/3 266/7/3
f 269/7/3 263/7/3 262/7/3
f 270/7/3 263/7/3 269/7/3
f 271/7/3 269/7/3 268/7/3
f 272/7/3 269/7/3 271/7/3
f 274/7/3 273/7/3 272/7/3
f 275/7/3 273/7/3 274/7/3
f 280/7/3 277/7/3 276/7/3
f 281/7/3 277/7/3 280/7/3
f 282/7/3 279/7/3 278/7/3
f 283/7/3 279/7/3 282/7/3
f 286/7/3 285/7/3 284/7/3
f 287/7/3 285/7/3 286/7/3
f 290/7/3 289/7/3 288/7/3
f 291/7/3 289/7/3 290/7/3
f 294/7/3 293/7/3 292/7/3
f 295/7/3 293/7/3 294/7/3
f 298/7/3 297/7/3 296/7/3
f 299/7/3 297/7/3 298/7/3
f 302/8/3 301/8/3 300/8/3
f 303/8/3 301/8/3 302/8/3
f 306/8/3 305/8/3 304/8/3
f 307/8/3 305/8/3 306/8/3
f 308/8/3 305/8/3 307/8/3
f 309/8/3 305/8/3 308/8/3
f 312/7/3 311/7/3 310/7/3
f 313/7/3 311/7/3 312/7/3
f 316/7/3 315/7/3 314/7/3
f 317/7/3 315/7/3 316/7/3
f 320/1/3 319/1/3 318/1/3
f 321/1/3 319/1/3 320/1/3
f 324/9/3 323/9/3 322/9/3
f 325/9/3 323/9/3 324/9/3
f 328/9/3 327/9/3 326/9/3
f 329/9/3 327/9/3 328/9/3
f 332/9/3 331/9/3 330/9/3
f 333/9/3 331/9/3 332/9/3
f 336/9/3 335/9/3 334/9/3
f 337/9/3 335/9/3 336/9/3
f 340/9/3 339/9/3 338/9/3
f 341/9/3 339/9/3 340/9/3
f 344/9/3 343/9/3 342/9/3
f 345/9/3 343/9/3 344/9/3
f 348/9/3 347/9/3 346/9/3
f 349/9/3 347/9/3 348/9/3
f 352/9/3 351/9/3 350/9/3
f 353/9/3 351/9/3 352/9/3
f 356/9/3 355/9/3 354/9/3
f 357/9/3 355/9/3 356/9/3
f 360/9/3 359/9/3 358/9/3
f 361/9/3 359/9/3 360/9/3
f 364/6/3 363/6/3 362/6/3
f 365/6/3 363/6/3 364/6/3
f 366/6/3 364/6/3 362/6/3
f 367/5/3 365/5/3 364/5/3
f 367/6/3 364/6/3 366/6/3
f 368/6/3 363/6/3 365/6/3
f 368/5/3 365/5/3 367/5/3
f 369/6/3 366/6/3 362/6/3
f 370/5/3 367/5/3 366/5/3
f 370/6/3 366/6/3 369/6/3
f 371/6/3 368/6/3 367/6/3
f 371/5/3 367/5/3 370/5/3
f 372/5/3 370/5/3 369/5/3
f 372/6/3 371/6/3 370/6/3
f 373/6/3 363/6/3 368/6/3
f 373/6/3 371/6/3 372/6/3
f 373/6/3 368/6/3 371/6/3
f 374/5/3 372/5/3 369/5/3
f 374/5/3 373/5/3 372/5/3
f 375/6/3 363/6/3 373/6/3
f 375/5/3 373/5/3 374/5/3
f 376/6/3 369/6/3 362/6/3
f 376/5/3 374/5/3 369/5/3
f 377/6/3 375/6/3 374/6/3
f 377/5/3 374/5/3 376/5/3
f 378/6/3 375/6/3 377/6/3
f 379/6/3 377/6/3 376/6/3
f 379/5/3 378/5/3 377/5/3
f 380/6/3 375/6/3 378/6/3
f 380/5/3 378/5/3 379/5/3
f 381/6/3 375/6/3 380/6/3
f 382/6/3 380/6/3 379/6/3
f 382/5/3 381/5/3 380/5/3
f 383/6/3 375/6/3 381/6/3
f 383/5/3 381/5/3 382/5/3
f 384/6/3 376/6/3 362/6/3
f 384/6/3 379/6/3 376/6/3
f 384/6/3 383/6/3 382/6/3
f 384/6/3 382/6/3 379/6/3
f 385/6/3 363/6/3 375/6/3
f 385/6/3 383/6/3 384/6/3
f 385/6/3 375/6/3 383/6/3
f 388/3/3 387/3/3 386/3/3
f 389/3/3 387/3/3 388/3/3
f 390/3/3 387/3/3 389/3/3
f 391/3/3 387/3/3 390/3/3
f 392/3/3 390/3/3 389/3/3
f 393/3/3 387/3/3 391/3/3
f 394/3/3 388/3/3 386/3/3
f 395/3/3 388/3/3 394/3/3
f 396/3/3 388/3/3 395/3/3
f 397/3/3 393/3/3 392/3/3
f 397/3/3 392/3/3 389/3/3
f 398/3/3 396/3/3 395/3/3
f 398/3/3 397/3/3 396/3/3
f 398/2/3 395/2/3 394/2/3
f 399/3/3 393/3/3 397/3/3
f 399/3/3 397/3/3 398/3/3
f 399/3/3 387/3/3 393/3/3
f 400/2/3 398/2/3 394/2/3
f 401/2/3 398/2/3 400/2/3
f 402/3/4 403/3/4 404/3/4
f 404/3/4 403/3/4 405/3/4
f 402/3/4 404/3/4 406/3/4
f 405/3/4 403/3/4 407/3/4
f 402/3/4 406/3/4 408/3/4
f 406/3/4 407/3/4 408/3/4
f 407/3/4 403/3/4 409/3/4
f 408/3/4 407/3/4 409/3/4
f 410/1/4 411/1/4 412/1/4
f 412/1/4 411/1/4 413/1/4
f 414/7/4 415/7/4 416/7/4
f 416/7/4 415/7/4 417/7/4
f 418/7/4 419/7/4 420/7/4
f 420/7/4 419/7/4 421/7/4
f 422/7/4 423/7/4 426/7/4
f 426/7/4 423/7/4 427/7/4
f 424/7/4 425/7/4 428/7/4
f 428/7/4 425/7/4 429/7/4
f 432/7/4 433/7/4 434/7/4
f 434/7/4 433/7/4 435/7/4
f 430/7/4 431/7/4 437/7/4
f 437/7/4 431/7/4 438/7/4
f 436/7/4 437/7/4 439/7/4
f 439/7/4 437/7/4 440/7/4
f 440/7/4 441/7/4 442/7/4
f 442/7/4 441/7/4 443/7/4
f 444/7/4 445/7/4 446/7/4
f 446/7/4 445/7/4 447/7/4
f 448/7/4 449/7/4 450/7/4
f 450/7/4 449/7/4 451/7/4
f 452/7/4 453/7/4 454/7/4
f 454/7/4 453/7/4 455/7/4
f 456/8/4 457/8/4 458/8/4
f 458/8/4 457/8/4 459/8/4
f 459/8/4 457/8/4 460/8/4
f 460/8/4 457/8/4 461/8/4
f 462/8/4 463/8/4 464/8/4
f 464/8/4 463/8/4 465/8/4
f 466/7/4 467/7/4 468/7/4
f 468/7/4 467/7/4 469/7/4
f 470/7/4 471/7/4 472/7/4
f 472/7/4 471/7/4 473/7/4
f 474/9/4 475/9/4 476/9/4
f 476/9/4 475/9/4 477/9/4
f 478/9/4 479/9/4 480/9/4
f 480/9/4 479/9/4 481/9/4
f 482/9/4 483/9/4 484/9/4
f 484/9/4 483/9/4 485/9/4
f 486/9/4 487/9/4 488/9/4
f 488/9/4 487/9/4 489/9/4
f 490/9/4 491/9/4 492/9/4
f 492/9/4 491/9/4 493/9/4
f 494/9/4 495/9/4 496/9/4
f 496/9/4 495/9/4 497/9/4
f 498/9/4 499/9/4 500/9/4
f 500/9/4 499/9/4 501/9/4
f 502/9/4 503/9/4 504/9/4
f 504/9/4 503/9/4 505/9/4
f 506/9/4 507/9/4 508/9/4
f 508/9/4 507/9/4 509/9/4
f 510/9/4 511/9/4 512/9/4
f 512/9/4 511/9/4 513/9/4
f 514/4/4 515/4/4 517/4/4
f 515/3/4 516/3/4 517/3/4
f 517/3/4 516/3/4 518/3/4
f 517/2/4 518/2/4 519/2/4
f 518/3/4 516/3/4 519/3/4
f 519/3/4 516/3/4 520/3/4
f 514/4/4 517/4/4 521/4/4
f 517/2/4 519/2/4 521/2/4
f 521/2/4 519/2/4 522/2/4
f 514/4/4 521/4/4 523/4/4
f 523/4/4 521/4/4 524/4/4
f 527/4/5 526/4/5 525/4/5
f 528/4/5 526/4/5 527/4/5
f 531/7/5 530/7/5 529/7/5
f 532/7/5 530/7/5 531/7/5
f 533/7/5 531/7/5 529/7/5
f 534/7/5 530/7/5 532/7/5
f 535/7/5 533/7/5 529/7/5
f 535/7/5 534/7/5 533/7/5
f 536/7/5 530/7/5 534/7/5
f 536/7/5 534/7/5 535/7/5
f 540/7/5 538/7/5 537/7/5
f 541/7/5 538/7/5 540/7/5
f 543/7/5 540/7/5 539/7/5
f 544/7/5 540/7/5 543/7/5
f 545/7/5 542/7/5 541/7/5
f 546/7/5 542/7/5 545/7/5
f 547/7/5 545/7/5 544/7/5
f 548/7/5 545/7/5 547/7/5
f 551/1/5 550/1/5 549/1/5
f 552/1/5 550/1/5 551/1/5
f 555/7/5 554/7/5 553/7/5
f 556/7/5 554/7/5 555/7/5
f 559/7/5 558/7/5 557/7/5
f 560/7/5 558/7/5 559/7/5
f 563/1/5 562/1/5 561/1/5
f 564/1/5 562/1/5 563/1/5
f 567/7/5 566/7/5 565/7/5
f 568/7/5 566/7/5 567/7/5
f 570/7/5 566/7/5 568/7/5
f 571/7/5 570/7/5 569/7/5
f 572/7/5 566/7/5 570/7/5
f 572/7/5 570/7/5 571/7/5
f 575/8/5 574/8/5 573/8/5
f 576/8/5 574/8/5 575/8/5
f 579/6/5 578/6/5 577/6/5
f 580/6/5 578/6/5 579/6/5
f 581/4/6 582/4/6 584/4/6
f 583/4/6 584/4/6 585/4/6
f 585/4/6 584/4/6 586/4/6
f 583/4/6 585/4/6 587/4/6
f 586/4/6 584/4/6 588/4/6
f 583/4/6 587/4/6 589/4/6
f 587/4/6 588/4/6 589/4/6
f 589/4/6 588/4/6 590/4/6
f 590/4/6 588/4/6 592/4/6
f 592/4/6 588/4/6 593/4/6
f 591/4/6 592/4/6 593/4/6
f 593/4/6 588/4/6 594/4/6
f 591/4/6 593/4/6 595/4/6
f 595/4/6 593/4/6 596/4/6
f 594/4/6 588/4/6 597/4/6
f 597/4/6 588/4/6 598/4/6
f 591/4/6 595/4/6 599/4/6
f 599/4/6 595/4/6 600/4/6
f 598/4/6 588/4/6 601/4/6
f 601/4/6 588/4/6 602/4/6
f 591/4/6 599/4/6 603/4/6
f 602/4/6 588/4/6 606/4/6
f 603/4/6 604/4/6 607/4/6
f 605/4/6 606/4/6 610/4/6
f 607/4/6 608/4/6 611/4/6
f 609/4/6 610/4/6 612/4/6
f 607/4/6 611/4/6 613/4/6
f 611/4/6 612/4/6 613/4/6
f 591/4/6 603/4/6 613/4/6
f 603/4/6 607/4/6 613/4/6
f 588/4/6 584/4/6 614/4/6
f 613/4/6 612/4/6 614/4/6
f 612/4/6 610/4/6 614/4/6
f 606/4/6 588/4/6 614/4/6
f 610/4/6 606/4/6 614/4/6
f 584/4/6 582/4/6 615/4/6
f 614/4/6 584/4/6 615/4/6
f 615/4/6 582/4/6 616/4/6
f 616/4/6 582/4/6 617/4/6
f 618/9/6 619/9/6 621/9/6
f 621/9/6 619/9/6 622/9/6
f 620/9/6 621/9/6 625/9/6
f 622/9/6 623/9/6 625/9/6
f 621/9/6 622/9/6 625/9/6
f 625/9/6 623/9/6 626/9/6
f 624/9/6 625/9/6 628/9/6
f 626/9/6 627/9/6 628/9/6
f 625/9/6 626/9/6 628/9/6
f 628/9/6 627/9/6 629/9/6
f 629/9/6 627/9/6 630/9/6
f 630/9/6 627/9/6 631/9/6
f 629/9/6 630/9/6 632/9/6
f 632/9/6 630/9/6 633/9/6
f 633/9/6 630/9/6 634/9/6
f 634/9/6 630/9/6 635/9/6
f 633/9/6 634/9/6 636/9/6
f 636/9/6 634/9/6 637/9/6
f 638/2/6 639/2/6 640/2/6
f 640/2/6 639/2/6 641/2/6
f 642/7/6 643/7/6 644/7/6
f 644/7/6 643/7/6 645/7/6
f 646/7/6 647/7/6 648/7/6
f 648/7/6 647/7/6 649/7/6
f 650/9/6 651/9/6 653/9/6
f 653/9/6 651/9/6 654/9/6
f 654/9/6 651/9/6 655/9/6
f 655/9/6 651/9/6 656/9/6
f 652/9/6 653/9/6 659/9/6
f 653/9/6 654/9/6 659/9/6
f 659/9/6 654/9/6 660/9/6
f 660/9/6 654/9/6 661/9/6
f 655/9/6 656/9/6 662/9/6
f 656/9/6 657/9/6 662/9/6
f 662/9/6 657/9/6 663/9/6
f 663/9/6 657/9/6 664/9/6
f 659/9/6 660/9/6 666/9/6
f 658/9/6 659/9/6 666/9/6
f 666/9/6 660/9/6 667/9/6
f 664/9/6 665/9/6 668/9/6
f 663/9/6 664/9/6 668/9/6
f 668/9/6 665/9/6 669/9/6
f 658/9/6 666/9/6 670/9/6
f 669/9/6 665/9/6 673/9/6
f 670/9/6 671/9/6 674/9/6
f 658/9/6 670/9/6 674/9/6
f 674/9/6 671/9/6 675/9/6
f 675/9/6 671/9/6 676/9/6
f 672/9/6 673/9/6 679/9/6
f 673/9/6 665/9/6 680/9/6
f 679/9/6 673/9/6 680/9/6
f 680/9/6 665/9/6 681/9/6
f 676/9/6 677/9/6 682/9/6
f 675/9/6 676/9/6 682/9/6
f 682/9/6 677/9/6 683/9/6
f 683/9/6 677/9/6 684/9/6
f 678/9/6 679/9/6 685/9/6
f 679/9/6 680/9/6 685/9/6
f 685/9/6 680/9/6 686/9/6
f 686/9/6 680/9/6 687/9/6
f 683/9/6 684/9/6 688/9/6
f 685/9/6 686/9/6 688/9/6
f 684/9/6 685/9/6 688/9/6
f 688/9/6 686/9/6 689/9/6
f 690/7/6 691/7/6 693/7/6
f 693/7/6 691/7/6 694/7/6
f 692/7/6 693/7/6 696/7/6
f 694/7/6 695/7/6 696/7/6
f 693/7/6 694/7/6 696/7/6
f 696/7/6 695/7/6 697/7/6
f 697/7/6 695/7/6 698/7/6
f 698/7/6 695/7/6 699/7/6
f 697/7/6 698/7/6 700/7/6
f 699/7/6 695/7/6 701/7/6
f 697/7/6 700/7/6 703/7/6
f 700/7/6 701/7/6 703/7/6
f 702/7/6 703/7/6 704/7/6
f 703/7/6 701/7/6 705/7/6
f 704/7/6 703/7/6 705/7/6
f 701/7/6 695/7/6 706/7/6
f 705/7/6 701/7/6 706/7/6
f 706/7/6 695/7/6 707/7/6
f 705/7/6 706/7/6 708/7/6
f 708/7/6 706/7/6 709/7/6
f 710/7/6 711/7/6 712/7/6
f 712/7/6 711/7/6 713/7/6
f 710/7/6 712/7/6 714/7/6
f 713/7/6 711/7/6 715/7/6
f 710/7/6 714/7/6 716/7/6
f 714/7/6 715/7/6 716/7/6
f 715/7/6 711/7/6 717/7/6
f 716/7/6 715/7/6 717/7/6
f 718/1/6 719/1/6 720/1/6
f 720/1/6 719/1/6 721/1/6
f 722/1/6 723/1/6 724/1/6
f 724/1/6 723/1/6 725/1/6
f 726/7/6 727/7/6 728/7/6
f 728/7/6 727/7/6 729/7/6
f 726/7/6 728/7/6 730/7/6
f 730/7/6 728/7/6 731/7/6
f 726/7/6 730/7/6 732/7/6
f 732/7/6 733/7/6 734/7/6
f 729/7/6 727/7/6 735/7/6
f 732/7/6 734/7/6 736/7/6
f 734/7/6 735/7/6 736/7/6
f 726/7/6 732/7/6 736/7/6
f 735/7/6 727/7/6 737/7/6
f 736/7/6 735/7/6 737/7/6
f 738/8/6 739/8/6 740/8/6
f 740/8/6 739/8/6 741/8/6
f 738/8/6 740/8/6 742/8/6
f 738/8/6 742/8/6 744/8/6
f 742/8/6 743/8/6 744/8/6
f 744/8/6 743/8/6 745/8/6
f 746/8/6 747/8/6 748/8/6
f 748/8/6 747/8/6 749/8/6
f 750/7/6 751/7/6 752/7/6
f 752/7/6 751/7/6 753/7/6
f 754/7/6 755/7/6 756/7/6
f 756/7/6 755/7/6 757/7/6
f 758/7/6 759/7/6 760/7/6
f 760/7/6 759/7/6 761/7/6
f 762/6/6 763/6/6 764/6/6
f 764/6/6 763/6/6 765/6/6
f 766/3/6 767/3/6 768/3/6
f 768/3/6 767/3/6 769/3/6
f 766/3/6 768/3/6 770/3/6
f 766/3/6 770/3/6 772/3/6
f 770/3/6 771/3/6 772/3/6
f 772/3/6 771/3/6 773/3/6
